<?xml version="1.0" encoding="utf-8"?>
<!-- Generator: Adobe Illustrator 25.0.0, SVG Export Plug-In . SVG Version: 6.00 Build 0)  -->
<svg version="1.1" id="Camada_1" xmlns="http://www.w3.org/2000/svg" xmlns:xlink="http://www.w3.org/1999/xlink" x="0px" y="0px"
	 viewBox="0 0 660 665" style="enable-background:new 0 0 660 665;" xml:space="preserve">
<style type="text/css">
	.st0{fill:#4F253A;}
	.st1{fill:#432535;}
	.st2{fill:#50273A;}
	.st3{fill:#52253C;}
	.st4{fill:#53263D;}
	.st5{fill:#3D1C2D;}
	.st6{fill:#3B1C2B;}
	.st7{fill:#431F31;}
	.st8{fill:#B39C4D;}
	.st9{fill:#8E8147;}
	.st10{fill:#4A2F3D;}
	.st11{fill:#411E30;}
	.st12{fill:#411E2F;}
	.st13{fill:#3C1C2C;}
	.st14{fill:#8E8148;}
	.st15{fill:#432635;}
	.st16{fill:#37423D;}
</style>
<g>
	<g>
		<path class="st0" d="M-13.35-8.29c0-3.13-1.2-7.47,0.34-9.04c1.53-1.56,5.79-0.34,8.86-0.34c0.51,0,1.02,0,1.53,0
			c0.58,0.46,0.26,1.24,0.58,1.65c-0.15-0.5-0.4-1.11,0.19-1.65c3.07,0,6.13,0,9.2,0c0.87,1.95,0.11,4,0.38,5.68
			c0.28-1.68-0.48-3.74,0.38-5.68c3.07,0,6.13,0,9.2,0c1.28,1.62,2.55,1.99,3.83,0c4.85,0,9.71,0,14.56,0c0.77,1.14,1.53,1.01,2.3,0
			c200.79,0,401.57,0,602.36,0c4.37,1.58,9.22,1.2,13.42,3.53c1.56,0.86,3.14,1.61,4.33,3.01c1.1,1.29,1.54,2.64,0.31,4.12
			c-1.56,2.11-3.72,1.4-5.75,1.27c-3.42-0.57-6.86-0.6-10.31-0.6c-102.78,0-205.55,0-308.33,0.01c-2.93,0-5.89-0.17-8.72,0.86
			c-0.76,0.27-1.54,0.35-2.2-0.13c-3.36-2.42-7.16-1.67-10.74-1.26c-6.23,0.71-12.43,1.28-18.71,1.28
			c-94.73-0.05-189.47-0.03-284.2,0c-3.01,0-6.2-0.55-8.76,1.8c-1.6,1.57-1.97,3.6-2.07,5.72c-0.13,2.6-0.08,5.21-0.08,7.81
			c0,218.57,0,437.15-0.01,655.72c0,3.2,0.39,6.49-1.33,9.45c-0.46,0.31-0.95,0.41-1.49,0.3c-1.61-1.21-1.54-3.05-1.68-4.8
			c-0.18-2.34-0.08-4.68-0.08-7.02c-0.01-217.32,0-434.64,0-651.95c0-1.04-0.07-2.09,0.01-3.12C-5.52,1.43-5.89-5.04-13.35-8.29z"/>
		<path class="st3" d="M670.4,653.79c1.25-3-0.39-6.69,2.14-9.38c0,10.55-0.05,21.11,0.05,31.66c0.02,1.68-0.32,2.02-1.97,2.01
			c-9.07-0.11-18.14-0.05-27.21-0.05c0.26-1.27,0.51-2.55,0.77-3.82c-0.19-1.38,0.61-1.84,1.76-1.95c1.27-0.12,2.54-0.07,3.81-0.17
			c9.3-0.76,15.14-5.59,18.07-14.75C668.27,655.96,667.76,653.59,670.4,653.79z"/>
		<path class="st4" d="M672.55,8.91c-0.76-1.31-1.52-2.61-2.29-3.92c-1.62-0.46-1.12-1.87-1.3-2.99c-1.04-6.5-1.42-6.77-8.22-8.62
			c-0.83-0.23-2.56,0.05-2.76-1.68c-3.04-4.13-7.86-4.99-12.14-6.82c-1.86-0.8-3.95-1.04-5.49-2.55c10.09,0,20.18,0.05,30.27-0.05
			c1.65-0.02,1.99,0.32,1.97,2.01C672.49-7.51,672.55,0.7,672.55,8.91z"/>
		<path class="st8" d="M670.4,653.79c-1.78,13.66-10.15,20.86-23.55,20.27c-0.88-0.04-1.77,0.09-2.66,0.13
			c-1.27-0.05-2.55-0.14-3.82-0.14c-213.8-0.01-427.59-0.01-641.39-0.01c-0.77,0-1.53,0.02-2.3,0.03c-0.08-1.82-0.24-3.63-0.24-5.45
			c-0.01-223.69-0.01-447.39,0-671.08c0-1.69,0.13-3.38,0.2-5.06c1.19-0.73,2.5-0.35,3.74-0.35C107.27-7.9,214.16-7.9,321.05-7.84
			c1.53,0,4.29-1.19,4.31,1.52c0.02,2.06-2.62,1.4-4.16,1.56c-17.2,1.82-33.78,5.59-48.3,15.9c-10.96,7.79-19,18.01-24.61,30.32
			c-4.74,10.38-10.7,20.15-14.74,30.9c-7.87,20.93-12.43,42.61-15.19,64.8c-1.91,15.35-2.6,30.84-5.58,46.09
			c-3.1,15.92,0.69,31.05,7,45.58c4.67,10.75,10.75,20.72,17.51,30.23c4.79,6.74,11.04,10.85,19.64,9.51
			c8.4-1.31,12.56-7.57,10.84-16.07c-0.57-2.84-1.84-5.41-3.11-7.96c-5.53-11.1-7.96-22.91-8.77-35.31
			c-1.26-19.42,0.28-38.76,1.11-58.09c0.69-16.2,4.01-32.02,12.39-46.28c7.42-12.62,18.05-21.39,31-27.51
			c13.96-6.59,28.82-9.66,43.91-11.83c7.97-1.14,15.95-2.11,23.6-4.87c12.1-4.38,18.48-12.9,19.13-25.95
			c0.16-3.13,0.5-6.25,1.07-9.3c2.87-15.63,14.03-22.21,29.76-20.45c26.07,2.92,50.92,10.92,75.51,19.79
			c25.29,9.13,49.89,20.04,74.52,30.86c10.42,4.58,19.27,11.73,28.01,18.94c18.07,14.91,33.27,32.64,47.74,51.07
			c6.05,7.7,12.99,14.36,21.91,18.55c1.91,0.9,3.33,2.31,4.58,3.96c0.05,2.08,0.15,4.16,0.15,6.24
			c0.01,163.74,0.01,327.49,0.01,491.23C670.29,648.32,670.36,651.06,670.4,653.79z"/>
		<path class="st9" d="M670.13,148.12c-11.66-3.51-20.24-11.36-27.66-20.7c-9.81-12.35-19.8-24.52-30.88-35.73
			c-10.64-10.77-22.21-20.35-34.71-28.79c-7.86-5.31-16.72-8.34-25.27-12.09c-30.04-13.18-60.27-25.89-91.84-34.85
			c-14.03-3.98-28.13-7.65-42.7-9.06c-4.14-0.4-8.18,0-12.15,1.04c-6.84,1.8-11.27,6.33-13.57,13.1c-1.61,4.73-2,9.67-2.31,14.61
			c-0.84,13.07-7.26,21.87-19.21,26.57c-7.95,3.12-16.32,4.13-24.67,5.3c-13.69,1.93-27.16,4.75-40.07,10.02
			c-24.07,9.82-38.03,27.98-43.34,53.58c-2.37,11.41-3.19,22.95-3.42,34.53c-0.34,16.9-1.95,33.8,0.21,50.71
			c1.3,10.19,4.04,19.87,8.72,28.97c0.53,1.04,1.09,2.08,1.48,3.17c2.07,5.74,2.88,11.55-1.25,16.66
			c-4.29,5.3-10.23,6.66-16.64,5.67c-5.83-0.9-10.58-4.14-13.97-8.89c-10.63-14.92-20.04-30.55-24.6-48.67
			c-2.4-9.54-3.72-19.29-1.74-29.02c2.93-14.33,3.61-28.91,5.29-43.38c2.89-24.94,7.63-49.41,17.22-72.67
			c5.25-12.74,11.56-25.01,18.46-36.84c11.12-19.08,28.51-29.66,49.33-34.85c7.04-1.75,14.18-2.81,21.37-4.03
			c-108.52,0-217.03,0-325.55,0c1.83-1.37,3.95-0.72,5.92-0.72C166.94-8.23,331.32-8.17,495.7-8.14
			c52.24,0.01,104.48-0.04,156.72-0.06c0.12,0.05,0.23,0.14,0.35,0.14c11.47,0.71,15.89,4.35,17.39,16.57
			c0.03,45.89,0.07,91.77,0.1,137.66C670.26,146.82,670.18,147.47,670.13,148.12z"/>
		<path class="st10" d="M670.16,8.51c-2.71-9.11-8.57-14.75-17.74-16.72c1.86-0.03,3.71-0.06,5.57-0.09
			c2.8,0.03,5.59,0.03,8.39,0.08c2.46,0.05,3.76,1.36,3.8,3.87c0.05,3.11,0.06,6.22,0.08,9.33C670.23,6.17,670.2,7.34,670.16,8.51z"
			/>
		<path class="st14" d="M544.78,545.03c-19.79,0.71-41.31-0.47-62.69-3.88c-4.17-0.66-8.31-1.52-12.2-3.26
			c-6.35-2.85-9.73-7.6-9.73-14.9c0-6.07,1.09-11.94,2.64-17.72c2.86-10.68,5.98-21.29,9.03-31.91c0.54-1.87,1.22-3.71,1.96-5.51
			c5.25-12.75,12.95-16.98,26.18-13.9c10.68,2.49,21.43,3.54,32.32,2.6c5.87-0.5,11.73-0.58,17.6-0.61
			c9.59-0.04,16.52,4.04,20.89,13c6.12,12.56,8.71,26.07,11.24,39.65c1.41,7.55,2.78,15.11,4.4,22.61
			c1.95,9.04-1.07,13.47-10.29,13.74C566.3,545.25,556.46,545.03,544.78,545.03z"/>
	</g>
</g>
<path class="st15" d="M-3.94,160.99c0-4.78-0.01-9.55,0.01-14.33c0.01-1.6-0.15-3.04,2.03-3.78c2.03-0.7,2.57,0.19,3.22,1.65
	c0.74,1.67,2.01,1.31,2.6,0.2c1.43-2.66,3.7-2.33,6-2.33c21.53-0.02,43.08,0.36,64.59-0.32c7.42-0.23,13.76,1.5,20.03,4.88
	c1.06,0.57,2.11,0.89,3.31,0.79c9.62-0.85,19.22,0.34,28.75,1.09c10.35,0.82,20.49,3.72,30.36,7.28c2.02,0.73,1.84,2.16,1.91,3.78
	c0.08,1.85-0.48,2.54-2.35,3.28c-10.42,4.08-21.33,5.42-32.22,7.31c-9.05,1.57-18.04,2.29-27.16,2.17c-2.6-0.03-4.61,1.54-6.78,2.63
	c-7.18,3.59-14.92,3.55-22.61,3.58c-19.93,0.09-39.85,0.08-59.78,0.08c-1.11,0-2.42,0.48-3.3-0.54c-1.59-1.83-2.9-3.51-4.51,0.09
	c-0.46,1.03-2.2,0.62-3.26,0.34c-1.29-0.34-0.8-1.71-0.81-2.64C-3.97,171.14-3.94,166.07-3.94,160.99z"/>
<g>
	<path class="st16" d="M103.16,66.96c-0.06,0.27-0.19,0.49-0.38,0.64c-0.2,0.16-0.41,0.23-0.64,0.23c-0.35,0-0.63-0.11-0.85-0.34
		c-0.22-0.22-0.32-0.48-0.32-0.78s0.03-0.58,0.09-0.86c0.06-0.28,0.09-0.56,0.09-0.83c0-1.43-0.44-2.71-1.32-3.84
		c-0.88-1.13-2.12-2.08-3.74-2.86c-1.61-0.77-3.57-1.36-5.87-1.77c-2.3-0.41-4.87-0.62-7.71-0.62c-2.17,0-4.35,0.14-6.55,0.42
		c-2.2,0.28-4.31,0.69-6.33,1.23c-2.02,0.54-3.91,1.21-5.67,2.02c-1.76,0.81-3.29,1.75-4.58,2.81c-1.3,1.06-2.32,2.25-3.06,3.54
		c-0.74,1.3-1.11,2.72-1.11,4.26c0,1.19,0.26,2.24,0.78,3.15c0.52,0.91,1.23,1.7,2.12,2.37c0.9,0.67,1.96,1.25,3.18,1.73
		c1.22,0.48,2.54,0.88,3.97,1.2c1.43,0.32,2.91,0.59,4.45,0.79c1.54,0.21,3.1,0.38,4.66,0.51l4.51,0.38c2.25,0.2,4.26,0.4,6.04,0.62
		c1.78,0.22,3.34,0.49,4.69,0.82c2.25,0.57,3.91,1.38,4.98,2.43c1.07,1.05,1.61,2.46,1.61,4.22c0,1.7-0.47,3.19-1.41,4.48
		s-2.22,2.37-3.84,3.25c-1.62,0.88-3.52,1.54-5.68,1.99c-2.17,0.45-4.49,0.67-6.97,0.67c-2.7,0-5.06-0.18-7.1-0.54
		c-2.04-0.36-3.75-0.76-5.13-1.2s-2.43-0.84-3.15-1.22c-0.72-0.37-1.11-0.58-1.17-0.62c-0.35-0.19-0.53-0.51-0.53-0.94
		c0-0.33,0.12-0.6,0.35-0.81s0.49-0.31,0.76-0.31c0.21,0,0.41,0.06,0.59,0.18c0.02,0,0.36,0.17,1.01,0.51
		c0.65,0.34,1.63,0.72,2.93,1.13c1.3,0.41,2.9,0.78,4.82,1.11c1.91,0.33,4.14,0.5,6.68,0.5c2.52,0,4.75-0.21,6.68-0.62
		s3.56-0.98,4.88-1.71s2.31-1.59,2.99-2.58c0.67-0.99,1.01-2.06,1.01-3.21c0-0.68-0.12-1.27-0.37-1.77
		c-0.24-0.5-0.58-0.93-1.01-1.29c-0.43-0.36-0.94-0.67-1.54-0.92c-0.6-0.25-1.25-0.47-1.95-0.64c-0.74-0.19-1.54-0.36-2.39-0.5
		c-0.85-0.14-1.72-0.25-2.62-0.35c-0.9-0.1-1.8-0.19-2.71-0.26c-0.91-0.08-1.8-0.16-2.68-0.23l-4.51-0.38
		c-3.56-0.29-6.66-0.75-9.3-1.36c-2.65-0.62-4.85-1.41-6.61-2.37s-3.08-2.12-3.96-3.47s-1.32-2.92-1.32-4.72
		c0-1.84,0.41-3.52,1.25-5.05c0.83-1.53,1.96-2.92,3.4-4.15s3.12-2.3,5.04-3.21c1.92-0.91,3.98-1.67,6.17-2.27
		c2.19-0.6,4.45-1.06,6.8-1.36c2.34-0.3,4.65-0.45,6.91-0.45c2.83,0,5.3,0.17,7.4,0.51c2.1,0.34,3.9,0.78,5.39,1.32
		c1.49,0.54,2.72,1.15,3.68,1.83c0.96,0.68,1.73,1.36,2.31,2.02c1.39,1.62,2.08,3.47,2.08,5.54
		C103.36,65.68,103.29,66.33,103.16,66.96z"/>
	<path class="st16" d="M103.89,94.5c0.41,0.57,0.94,1.02,1.58,1.36c0.64,0.34,1.44,0.51,2.37,0.51c0.96,0,1.83-0.23,2.61-0.69
		c0.78-0.46,1.49-1.06,2.14-1.8c0.64-0.74,1.22-1.57,1.73-2.49c0.51-0.92,0.97-1.84,1.38-2.75c0.1-0.21,0.23-0.38,0.41-0.48
		c0.18-0.11,0.37-0.16,0.59-0.16c0.33,0,0.6,0.12,0.81,0.35s0.31,0.49,0.31,0.76c0,0.1-0.01,0.18-0.03,0.25
		c-0.02,0.07-0.05,0.14-0.09,0.22c-1.35,2.97-2.82,5.21-4.41,6.71c-1.59,1.5-3.39,2.27-5.41,2.31c-1.29,0-2.4-0.25-3.34-0.75
		s-1.71-1.14-2.31-1.93c-0.61-0.79-1.05-1.68-1.35-2.68s-0.44-1.99-0.44-2.99s0.12-1.91,0.37-2.75c0.24-0.84,0.6-1.57,1.05-2.2
		c0.46-0.62,1.01-1.11,1.64-1.46c0.63-0.35,1.33-0.53,2.09-0.53c0.45,0,0.89,0.09,1.33,0.28c0.44,0.19,0.83,0.45,1.19,0.79
		c0.35,0.34,0.63,0.76,0.85,1.25c0.21,0.49,0.32,1.04,0.32,1.67c0,0.8-0.14,1.55-0.41,2.26c-0.27,0.7-0.65,1.36-1.13,1.96
		c-0.48,0.61-1.05,1.16-1.71,1.67C105.36,93.69,104.65,94.13,103.89,94.5z M103.01,92.59c0.6-0.25,1.16-0.58,1.66-0.97
		c0.5-0.39,0.92-0.82,1.27-1.29s0.62-0.96,0.82-1.48c0.19-0.52,0.29-1.04,0.29-1.57c0-0.59-0.15-1.03-0.44-1.33
		c-0.29-0.3-0.63-0.45-1.03-0.45c-0.53,0-0.98,0.15-1.35,0.44c-0.37,0.29-0.67,0.67-0.91,1.14s-0.41,0.99-0.51,1.57
		c-0.11,0.58-0.16,1.15-0.16,1.71c0,0.35,0.03,0.72,0.1,1.11C102.83,91.87,102.91,92.24,103.01,92.59z"/>
	<path class="st16" d="M134.85,89.6c-0.12,0.22-0.32,0.61-0.6,1.17c-0.28,0.57-0.66,1.21-1.14,1.92c-0.48,0.71-1.05,1.45-1.71,2.21
		c-0.66,0.76-1.43,1.46-2.29,2.09c-0.86,0.63-1.82,1.16-2.89,1.57c-1.06,0.41-2.22,0.62-3.47,0.62c-1.11,0-2.1-0.2-2.96-0.6
		c-0.86-0.4-1.59-0.97-2.2-1.7c-0.61-0.73-1.06-1.6-1.38-2.59c-0.31-1-0.47-2.1-0.47-3.31c0-1.17,0.17-2.27,0.5-3.3
		c0.33-1.03,0.79-1.92,1.36-2.68c0.58-0.76,1.25-1.36,2.01-1.8s1.57-0.66,2.43-0.66c0.64,0,1.23,0.11,1.76,0.34
		c0.53,0.22,0.97,0.52,1.33,0.89c0.36,0.37,0.64,0.78,0.85,1.23c0.21,0.45,0.31,0.9,0.31,1.35c0,0.43-0.05,0.83-0.16,1.2
		c-0.11,0.37-0.24,0.7-0.41,0.98c-0.17,0.28-0.36,0.51-0.57,0.67c-0.22,0.17-0.43,0.25-0.64,0.25c-0.33,0-0.6-0.11-0.81-0.32
		c-0.21-0.21-0.31-0.48-0.31-0.79c0-0.16,0.03-0.29,0.1-0.41c0.07-0.12,0.15-0.24,0.23-0.37c0.09-0.13,0.17-0.28,0.23-0.47
		c0.07-0.19,0.1-0.42,0.1-0.72c0-0.41-0.19-0.78-0.57-1.11c-0.38-0.33-0.86-0.5-1.45-0.5c-0.55,0-1.07,0.17-1.57,0.5
		c-0.5,0.33-0.93,0.78-1.3,1.33c-0.37,0.56-0.67,1.21-0.89,1.96c-0.22,0.75-0.34,1.55-0.34,2.39c0,0.8,0.1,1.56,0.29,2.29
		c0.19,0.72,0.49,1.36,0.88,1.92c0.39,0.56,0.88,1,1.48,1.33c0.6,0.33,1.3,0.5,2.12,0.5c1.05,0,2.03-0.19,2.93-0.57
		c0.9-0.38,1.72-0.86,2.46-1.45c0.74-0.59,1.4-1.23,1.96-1.92c0.57-0.69,1.05-1.35,1.45-1.96c0.4-0.62,0.71-1.15,0.94-1.61
		c0.22-0.46,0.36-0.75,0.4-0.86c0.08-0.19,0.21-0.35,0.4-0.45c0.19-0.11,0.39-0.16,0.6-0.16c0.33,0,0.6,0.12,0.81,0.35
		s0.31,0.5,0.31,0.79C134.97,89.25,134.93,89.41,134.85,89.6z"/>
	<path class="st16" d="M135.94,85.68c-0.08,0.53-0.18,1.02-0.29,1.48c-0.12,0.46-0.23,0.86-0.34,1.2c-0.11,0.34-0.2,0.62-0.28,0.83
		c-0.08,0.22-0.13,0.33-0.15,0.35c-0.2,0.45-0.54,0.67-1.03,0.67c-0.27,0-0.53-0.1-0.76-0.31s-0.35-0.46-0.35-0.78
		c0-0.12,0.02-0.21,0.06-0.26c0.04-0.06,0.1-0.18,0.18-0.35c0.08-0.18,0.18-0.47,0.29-0.88s0.26-1.04,0.44-1.9
		c-0.33,0-0.67-0.01-1.03-0.03c-0.35-0.02-0.68-0.09-0.98-0.21s-0.55-0.3-0.75-0.56c-0.19-0.25-0.29-0.6-0.29-1.05
		c0-0.33,0.09-0.78,0.28-1.35c0.19-0.57,0.44-1.12,0.75-1.67c0.31-0.55,0.66-1.02,1.05-1.42c0.39-0.4,0.78-0.6,1.17-0.6
		c0.45,0,0.82,0.17,1.1,0.5c0.28,0.33,0.5,0.74,0.66,1.22c0.16,0.48,0.27,0.98,0.34,1.51c0.07,0.53,0.1,0.99,0.1,1.38
		c0.33,0,0.66,0,0.98-0.01c0.32-0.01,0.63-0.01,0.92-0.01c1.11,0,1.96,0.24,2.55,0.73c0.59,0.49,0.88,1.29,0.88,2.4
		c0,0.45-0.03,0.92-0.09,1.41c-0.06,0.49-0.13,0.99-0.21,1.51c-0.08,0.52-0.15,1.03-0.21,1.54c-0.06,0.51-0.09,1.01-0.09,1.49
		c0,0.7,0.1,1.28,0.29,1.74c0.19,0.46,0.44,0.83,0.73,1.1c0.29,0.27,0.6,0.46,0.94,0.57c0.33,0.11,0.63,0.16,0.91,0.16
		c0.84,0,1.63-0.27,2.37-0.82c0.74-0.55,1.43-1.21,2.05-1.98c0.62-0.77,1.19-1.59,1.68-2.45c0.5-0.86,0.91-1.61,1.25-2.26
		c0.1-0.18,0.23-0.31,0.41-0.41c0.18-0.1,0.36-0.15,0.56-0.15c0.35,0,0.62,0.11,0.82,0.34c0.19,0.22,0.29,0.47,0.29,0.75
		c0,0.2-0.04,0.37-0.12,0.53c-0.45,0.8-0.97,1.7-1.57,2.71c-0.6,1.01-1.27,1.95-2.04,2.83s-1.62,1.62-2.56,2.23
		c-0.95,0.6-1.99,0.91-3.12,0.91c-0.7,0-1.37-0.13-1.99-0.4c-0.63-0.26-1.17-0.64-1.63-1.14c-0.46-0.5-0.83-1.11-1.1-1.85
		c-0.27-0.73-0.41-1.56-0.41-2.48c0-0.98,0.1-1.95,0.29-2.92c0.19-0.97,0.29-1.89,0.29-2.77c0-0.37-0.08-0.65-0.25-0.83
		c-0.17-0.19-0.53-0.28-1.1-0.28c-0.27,0-0.57,0-0.89,0S136.31,85.66,135.94,85.68z M133.98,83.51c0-0.14,0-0.32-0.01-0.54
		c-0.01-0.22-0.03-0.44-0.06-0.66c-0.03-0.21-0.07-0.4-0.12-0.56c-0.05-0.16-0.1-0.23-0.16-0.23s-0.13,0.07-0.22,0.22
		s-0.18,0.32-0.28,0.53c-0.1,0.21-0.19,0.42-0.26,0.66c-0.08,0.23-0.14,0.43-0.18,0.59H133.98z"/>
	<path class="st16" d="M154.57,94.5c0.41,0.57,0.94,1.02,1.58,1.36c0.64,0.34,1.44,0.51,2.37,0.51c0.96,0,1.83-0.23,2.61-0.69
		c0.78-0.46,1.49-1.06,2.14-1.8c0.64-0.74,1.22-1.57,1.73-2.49c0.51-0.92,0.97-1.84,1.38-2.75c0.1-0.21,0.23-0.38,0.41-0.48
		c0.18-0.11,0.37-0.16,0.59-0.16c0.33,0,0.6,0.12,0.81,0.35s0.31,0.49,0.31,0.76c0,0.1-0.01,0.18-0.03,0.25
		c-0.02,0.07-0.05,0.14-0.09,0.22c-1.35,2.97-2.82,5.21-4.41,6.71c-1.59,1.5-3.39,2.27-5.41,2.31c-1.29,0-2.4-0.25-3.34-0.75
		s-1.71-1.14-2.31-1.93c-0.61-0.79-1.05-1.68-1.35-2.68s-0.44-1.99-0.44-2.99s0.12-1.91,0.37-2.75c0.24-0.84,0.6-1.57,1.05-2.2
		c0.46-0.62,1.01-1.11,1.64-1.46c0.63-0.35,1.33-0.53,2.09-0.53c0.45,0,0.89,0.09,1.33,0.28c0.44,0.19,0.83,0.45,1.19,0.79
		c0.35,0.34,0.63,0.76,0.85,1.25c0.21,0.49,0.32,1.04,0.32,1.67c0,0.8-0.14,1.55-0.41,2.26c-0.27,0.7-0.65,1.36-1.13,1.96
		c-0.48,0.61-1.05,1.16-1.71,1.67C156.05,93.69,155.33,94.13,154.57,94.5z M153.69,92.59c0.6-0.25,1.16-0.58,1.66-0.97
		c0.5-0.39,0.92-0.82,1.27-1.29s0.62-0.96,0.82-1.48c0.19-0.52,0.29-1.04,0.29-1.57c0-0.59-0.15-1.03-0.44-1.33
		c-0.29-0.3-0.63-0.45-1.03-0.45c-0.53,0-0.98,0.15-1.35,0.44c-0.37,0.29-0.67,0.67-0.91,1.14s-0.41,0.99-0.51,1.57
		c-0.11,0.58-0.16,1.15-0.16,1.71c0,0.35,0.03,0.72,0.1,1.11C153.51,91.87,153.59,92.24,153.69,92.59z"/>
	<path class="st16" d="M190.11,68.39c0,0.31-0.11,0.56-0.32,0.75c-0.22,0.19-0.48,0.28-0.79,0.28h-14.85v0.32
		c0,1.19-0.09,2.46-0.26,3.81s-0.42,2.69-0.72,4.03c-0.3,1.34-0.64,2.64-1.03,3.91c-0.38,1.27-0.77,2.44-1.17,3.52
		c-0.4,1.07-0.8,2.01-1.19,2.8c-0.39,0.79-0.74,1.38-1.05,1.77c0.25,0.9,0.56,1.73,0.91,2.5c0.35,0.77,0.75,1.45,1.19,2.02
		c0.44,0.58,0.91,1.03,1.42,1.36c0.51,0.33,1.05,0.5,1.64,0.5c0.68,0,1.36-0.29,2.04-0.86c0.67-0.58,1.3-1.26,1.88-2.05
		c0.58-0.79,1.08-1.59,1.52-2.4c0.44-0.81,0.76-1.46,0.95-1.95c0.19-0.47,0.54-0.7,1.03-0.7c0.33,0,0.6,0.12,0.81,0.35
		s0.31,0.49,0.31,0.76c0,0.14-0.03,0.27-0.09,0.41c-0.06,0.14-0.2,0.45-0.42,0.94c-0.22,0.49-0.52,1.05-0.88,1.7
		c-0.36,0.64-0.78,1.32-1.26,2.04c-0.48,0.71-1.02,1.36-1.61,1.95c-0.6,0.59-1.24,1.07-1.92,1.46c-0.68,0.39-1.41,0.59-2.17,0.59
		c-1.35,0-2.56-0.44-3.63-1.32c-1.07-0.88-1.99-2.11-2.74-3.69c-0.75-1.58-1.32-3.46-1.71-5.62c-0.39-2.17-0.59-4.54-0.59-7.12
		c0-0.64,0.01-1.4,0.03-2.27c0.02-0.87,0.06-1.79,0.12-2.75s0.15-1.96,0.26-2.99s0.27-2.03,0.47-3h-10.52
		c-0.31,0-0.58-0.09-0.79-0.28c-0.21-0.19-0.32-0.43-0.32-0.75c0-0.31,0.11-0.56,0.32-0.75c0.22-0.19,0.48-0.28,0.79-0.28h11.02
		c0.19-0.7,0.42-1.35,0.69-1.93s0.57-1.09,0.91-1.52c0.34-0.43,0.72-0.77,1.14-1.01c0.42-0.24,0.88-0.37,1.39-0.37
		c0.49,0,0.91,0.12,1.27,0.37c0.36,0.24,0.67,0.58,0.92,1.01c0.25,0.43,0.45,0.94,0.6,1.52s0.26,1.23,0.34,1.93H189
		c0.31,0,0.58,0.09,0.79,0.28C190,67.83,190.11,68.08,190.11,68.39z M168.05,86.65c0.59-1.29,1.12-2.68,1.6-4.17
		c0.48-1.49,0.89-3,1.23-4.53c0.34-1.52,0.6-3.02,0.79-4.48c0.19-1.46,0.28-2.81,0.28-4.04h-3.46c-0.27,1.21-0.49,2.71-0.66,4.5
		c-0.17,1.79-0.25,3.96-0.25,6.52c0,1.43,0.04,2.62,0.12,3.59C167.77,84.99,167.89,85.86,168.05,86.65z M170.77,64.73
		c-0.18,0-0.43,0.19-0.76,0.57c-0.33,0.38-0.66,1.07-1,2.07h2.81c-0.1-0.82-0.24-1.46-0.42-1.93
		C171.22,64.97,171.01,64.73,170.77,64.73z"/>
	<path class="st16" d="M236.95,55.21c0,0.68-0.19,1.36-0.56,2.02c-0.37,0.66-0.85,1.28-1.44,1.85c-0.59,0.57-1.25,1.08-1.98,1.54
		c-0.73,0.46-1.46,0.83-2.18,1.13c-0.2,0.82-0.35,1.73-0.47,2.74c-0.12,1.01-0.2,2.12-0.23,3.35c-0.04,1.52-0.1,3.04-0.18,4.54
		c-0.08,1.5-0.2,3-0.35,4.48c1.58-0.06,3.31-0.12,5.19-0.19c1.88-0.07,3.84-0.13,5.89-0.19s4.16-0.11,6.31-0.15
		c2.16-0.04,4.31-0.06,6.46-0.06c0.16-3.12,0.5-5.9,1.03-8.32c0.53-2.42,1.22-4.46,2.07-6.12c0.85-1.66,1.85-2.92,3-3.78
		c1.15-0.86,2.43-1.29,3.84-1.29c0.23,0,0.52,0.02,0.86,0.06c0.34,0.04,0.68,0.11,1.01,0.22c0.33,0.11,0.62,0.26,0.85,0.47
		s0.35,0.48,0.35,0.83c0,0.1-0.01,0.19-0.03,0.28c-0.02,0.09-0.06,0.18-0.12,0.28c-0.22,0.35-0.51,0.53-0.88,0.53
		c-0.16,0-0.28-0.02-0.37-0.07c-0.09-0.05-0.2-0.1-0.32-0.15c-0.13-0.05-0.29-0.1-0.48-0.15c-0.2-0.05-0.47-0.07-0.82-0.07
		c-0.29,0-0.67,0.05-1.13,0.16c-0.46,0.11-0.95,0.36-1.48,0.75c-0.53,0.39-1.07,0.96-1.63,1.71c-0.56,0.75-1.07,1.77-1.55,3.05
		c-0.48,1.28-0.9,2.87-1.26,4.76c-0.36,1.89-0.6,4.18-0.72,6.86c1.29,0.02,2.56,0.04,3.81,0.06c1.25,0.02,2.48,0.05,3.69,0.09
		c0.33,0,0.59,0.11,0.78,0.34c0.19,0.22,0.28,0.49,0.28,0.81c0,0.31-0.11,0.57-0.32,0.76c-0.22,0.2-0.47,0.29-0.76,0.29
		c-0.39,0-0.8,0-1.22-0.01c-0.42-0.01-0.92-0.02-1.49-0.04c-0.58-0.02-1.26-0.04-2.04-0.06c-0.78-0.02-1.71-0.03-2.78-0.03
		c-0.02,0.31-0.03,0.63-0.03,0.94c0,0.31,0,0.63,0,0.97c0,2.15,0.08,4.07,0.25,5.77c0.17,1.7,0.37,3.2,0.62,4.51
		c0.24,1.31,0.51,2.43,0.81,3.35c0.29,0.93,0.57,1.69,0.82,2.29c0.25,0.6,0.55,1.18,0.88,1.74c0.14,0.19,0.21,0.41,0.21,0.64
		c0,0.29-0.11,0.55-0.32,0.78c-0.22,0.22-0.48,0.34-0.79,0.34c-0.37,0-0.66-0.16-0.88-0.47c-0.04-0.06-0.26-0.44-0.66-1.14
		c-0.4-0.7-0.83-1.81-1.3-3.33c-0.47-1.51-0.89-3.46-1.27-5.83s-0.57-5.26-0.57-8.66v-1.9c-2.17,0-4.35,0.02-6.53,0.06
		c-2.19,0.04-4.31,0.09-6.37,0.15c-2.06,0.06-4.03,0.12-5.92,0.19c-1.89,0.07-3.62,0.13-5.2,0.19c-0.37,2.71-0.94,5.27-1.71,7.68
		c-0.77,2.4-1.88,4.51-3.31,6.31c-1.44,1.81-3.27,3.23-5.49,4.28s-4.97,1.57-8.23,1.57c-1.72,0-3.38-0.18-5-0.54
		c-1.61-0.36-3.11-0.87-4.5-1.52c-1.39-0.65-2.64-1.44-3.75-2.36c-1.11-0.92-2.02-1.92-2.72-3.02c-0.12-0.18-0.18-0.37-0.18-0.59
		c0-0.29,0.1-0.55,0.31-0.78c0.21-0.22,0.47-0.34,0.81-0.34c0.18,0,0.35,0.04,0.53,0.13s0.31,0.21,0.41,0.37
		c0.6,0.96,1.39,1.83,2.36,2.61c0.97,0.78,2.07,1.46,3.3,2.02c1.23,0.57,2.56,1.01,4,1.32c1.44,0.31,2.92,0.47,4.47,0.47
		c2.87,0,5.28-0.45,7.24-1.36c1.95-0.91,3.55-2.15,4.79-3.74c1.24-1.58,2.2-3.43,2.87-5.55c0.67-2.12,1.18-4.4,1.51-6.84
		c-1.88,0.1-3.36,0.18-4.45,0.23c-1.09,0.06-1.66,0.09-1.7,0.09c-0.29,0-0.56-0.09-0.81-0.28c-0.24-0.19-0.37-0.44-0.37-0.78
		c0-0.31,0.09-0.58,0.28-0.79c0.19-0.21,0.43-0.34,0.75-0.38c0.04,0,0.64-0.03,1.82-0.09s2.75-0.14,4.75-0.23
		c0.16-1.5,0.28-3.02,0.37-4.56c0.09-1.53,0.17-3.08,0.25-4.64c0.04-1,0.11-1.96,0.22-2.89c0.11-0.93,0.24-1.77,0.4-2.53
		c-0.45,0.1-0.95,0.18-1.51,0.25c-0.56,0.07-1.11,0.1-1.66,0.1c-1.72,0-3.41-0.14-5.07-0.41c-1.66-0.27-3.33-0.57-5-0.89
		s-3.35-0.62-5.04-0.89c-1.69-0.27-3.41-0.41-5.17-0.41c-1.45,0-2.8,0.15-4.06,0.45c-1.26,0.3-2.36,0.77-3.3,1.39
		c-0.94,0.63-1.67,1.41-2.21,2.36c-0.54,0.95-0.81,2.07-0.81,3.35c0,0.82,0.15,1.54,0.44,2.17c0.29,0.63,0.62,1.15,1,1.58
		c0.37,0.43,0.73,0.77,1.07,1.01c0.34,0.24,0.56,0.4,0.66,0.45c0.35,0.25,0.53,0.58,0.53,0.97c0,0.31-0.1,0.57-0.29,0.78
		c-0.2,0.21-0.44,0.31-0.73,0.31c-0.14,0-0.27-0.02-0.4-0.07c-0.13-0.05-0.24-0.1-0.34-0.16c-0.45-0.27-0.92-0.62-1.41-1.05
		c-0.49-0.43-0.94-0.94-1.35-1.54c-0.41-0.6-0.75-1.26-1.01-2.01c-0.26-0.74-0.4-1.55-0.4-2.43c0-1.72,0.38-3.2,1.13-4.44
		c0.75-1.24,1.73-2.26,2.94-3.05c1.21-0.79,2.56-1.37,4.06-1.74c1.49-0.37,2.99-0.56,4.5-0.56c1.7,0,3.38,0.14,5.05,0.42
		c1.67,0.28,3.34,0.59,5.02,0.92c1.68,0.33,3.36,0.64,5.05,0.92c1.69,0.28,3.41,0.42,5.17,0.42c0.7,0,1.34-0.02,1.9-0.07
		c0.57-0.05,1.1-0.15,1.61-0.31c0.35-1.23,0.76-2.29,1.22-3.18c0.46-0.89,0.95-1.62,1.46-2.2c0.52-0.58,1.04-1,1.57-1.27
		c0.53-0.27,1.04-0.41,1.52-0.41c0.64,0,1.19,0.2,1.63,0.59C236.73,54.08,236.95,54.58,236.95,55.21z M234.52,55.18
		c-0.16,0-0.37,0.08-0.63,0.25c-0.26,0.17-0.55,0.42-0.86,0.76c-0.31,0.34-0.63,0.78-0.94,1.3c-0.31,0.53-0.59,1.15-0.82,1.88
		c0.64-0.29,1.21-0.67,1.7-1.14c0.49-0.47,0.88-0.93,1.17-1.39c0.29-0.46,0.48-0.85,0.56-1.17
		C234.78,55.34,234.72,55.18,234.52,55.18z"/>
	<path class="st16" d="M269.39,74.72c0,0.74-0.26,1.37-0.78,1.89c-0.52,0.52-1.15,0.78-1.89,0.78c-0.74,0-1.37-0.26-1.89-0.78
		c-0.52-0.52-0.78-1.15-0.78-1.89c0-0.37,0.07-0.72,0.21-1.04c0.14-0.32,0.33-0.6,0.57-0.85c0.24-0.24,0.53-0.43,0.85-0.57
		c0.32-0.14,0.67-0.21,1.04-0.21c0.37,0,0.72,0.07,1.04,0.21c0.32,0.14,0.6,0.33,0.85,0.57c0.24,0.24,0.43,0.53,0.57,0.85
		C269.32,74,269.39,74.35,269.39,74.72z M264.64,91.89c0-2.81,0.18-5.61,0.53-8.41c0.04-0.27,0.16-0.51,0.37-0.72
		s0.47-0.31,0.81-0.31c0.29,0,0.54,0.11,0.73,0.34c0.19,0.22,0.29,0.48,0.29,0.78c0,0.12-0.02,0.47-0.07,1.05
		c-0.05,0.59-0.11,1.28-0.18,2.09c-0.07,0.81-0.13,1.67-0.18,2.58c-0.05,0.91-0.07,1.74-0.07,2.5c0,1.04,0.1,1.87,0.31,2.5
		c0.21,0.63,0.47,1.13,0.79,1.48s0.66,0.59,1.03,0.7c0.36,0.12,0.71,0.18,1.04,0.18c0.55,0,1.11-0.19,1.7-0.59
		c0.59-0.39,1.19-0.94,1.8-1.64s1.23-1.55,1.86-2.53c0.62-0.99,1.24-2.08,1.85-3.3c0.1-0.19,0.23-0.35,0.41-0.45
		c0.18-0.11,0.37-0.16,0.59-0.16c0.31,0,0.57,0.12,0.78,0.35s0.31,0.49,0.31,0.76c0,0.2-0.04,0.36-0.12,0.5
		c-0.23,0.45-0.53,1-0.88,1.64s-0.75,1.31-1.2,1.99c-0.45,0.68-0.94,1.36-1.48,2.04c-0.54,0.67-1.11,1.28-1.71,1.82
		c-0.61,0.54-1.24,0.97-1.9,1.3c-0.66,0.33-1.34,0.5-2.02,0.5c-0.88,0-1.65-0.19-2.31-0.56c-0.66-0.37-1.23-0.87-1.68-1.49
		c-0.46-0.62-0.8-1.36-1.03-2.21C264.75,93.78,264.64,92.87,264.64,91.89z M267.75,74.72c0-0.27-0.1-0.51-0.31-0.72
		s-0.44-0.31-0.72-0.31c-0.27,0-0.51,0.1-0.7,0.31c-0.2,0.21-0.29,0.44-0.29,0.72c0,0.27,0.1,0.51,0.29,0.7
		c0.19,0.2,0.43,0.29,0.7,0.29c0.27,0,0.51-0.1,0.72-0.29C267.64,75.23,267.75,75,267.75,74.72z"/>
	<path class="st16" d="M300.94,68.39c0,0.31-0.11,0.56-0.32,0.75c-0.22,0.19-0.48,0.28-0.79,0.28h-14.85v0.32
		c0,1.19-0.09,2.46-0.26,3.81s-0.42,2.69-0.72,4.03c-0.3,1.34-0.64,2.64-1.03,3.91c-0.38,1.27-0.77,2.44-1.17,3.52
		c-0.4,1.07-0.8,2.01-1.19,2.8c-0.39,0.79-0.74,1.38-1.05,1.77c0.25,0.9,0.56,1.73,0.91,2.5c0.35,0.77,0.75,1.45,1.19,2.02
		c0.44,0.58,0.91,1.03,1.42,1.36c0.51,0.33,1.05,0.5,1.64,0.5c0.68,0,1.36-0.29,2.04-0.86c0.67-0.58,1.3-1.26,1.88-2.05
		c0.58-0.79,1.08-1.59,1.52-2.4c0.44-0.81,0.76-1.46,0.95-1.95c0.19-0.47,0.54-0.7,1.03-0.7c0.33,0,0.6,0.12,0.81,0.35
		s0.31,0.49,0.31,0.76c0,0.14-0.03,0.27-0.09,0.41c-0.06,0.14-0.2,0.45-0.42,0.94c-0.22,0.49-0.52,1.05-0.88,1.7
		c-0.36,0.64-0.78,1.32-1.26,2.04c-0.48,0.71-1.02,1.36-1.61,1.95c-0.6,0.59-1.24,1.07-1.92,1.46c-0.68,0.39-1.41,0.59-2.17,0.59
		c-1.35,0-2.56-0.44-3.63-1.32c-1.07-0.88-1.99-2.11-2.74-3.69c-0.75-1.58-1.32-3.46-1.71-5.62c-0.39-2.17-0.59-4.54-0.59-7.12
		c0-0.64,0.01-1.4,0.03-2.27c0.02-0.87,0.06-1.79,0.12-2.75s0.15-1.96,0.26-2.99s0.27-2.03,0.47-3h-10.52
		c-0.31,0-0.58-0.09-0.79-0.28c-0.21-0.19-0.32-0.43-0.32-0.75c0-0.31,0.11-0.56,0.32-0.75c0.22-0.19,0.48-0.28,0.79-0.28h11.02
		c0.19-0.7,0.42-1.35,0.69-1.93s0.57-1.09,0.91-1.52c0.34-0.43,0.72-0.77,1.14-1.01c0.42-0.24,0.88-0.37,1.39-0.37
		c0.49,0,0.91,0.12,1.27,0.37c0.36,0.24,0.67,0.58,0.92,1.01c0.25,0.43,0.45,0.94,0.6,1.52s0.26,1.23,0.34,1.93h14.97
		c0.31,0,0.58,0.09,0.79,0.28C300.83,67.83,300.94,68.08,300.94,68.39z M278.88,86.65c0.59-1.29,1.12-2.68,1.6-4.17
		c0.48-1.49,0.89-3,1.23-4.53c0.34-1.52,0.6-3.02,0.79-4.48c0.19-1.46,0.28-2.81,0.28-4.04h-3.46c-0.27,1.21-0.49,2.71-0.66,4.5
		c-0.17,1.79-0.25,3.96-0.25,6.52c0,1.43,0.04,2.62,0.12,3.59C278.6,84.99,278.72,85.86,278.88,86.65z M281.6,64.73
		c-0.18,0-0.43,0.19-0.76,0.57c-0.33,0.38-0.66,1.07-1,2.07h2.81c-0.1-0.82-0.24-1.46-0.42-1.93
		C282.05,64.97,281.84,64.73,281.6,64.73z"/>
	<path class="st16" d="M307.88,89.6c-0.22,0.45-0.48,0.98-0.81,1.6s-0.69,1.26-1.1,1.92c-0.41,0.66-0.87,1.32-1.38,1.98
		c-0.51,0.65-1.06,1.24-1.66,1.76c-0.6,0.52-1.23,0.94-1.9,1.26s-1.39,0.48-2.15,0.48c-1.17,0-2.18-0.36-3.02-1.08
		c-0.84-0.72-1.55-1.67-2.14-2.84s-1.06-2.5-1.42-4c-0.36-1.49-0.64-3.02-0.83-4.57c-0.2-1.55-0.33-3.06-0.4-4.53
		c-0.07-1.46-0.1-2.76-0.1-3.9c0-1.64,0.05-3.34,0.16-5.1c0.11-1.76,0.28-3.48,0.51-5.16c0.23-1.68,0.53-3.27,0.89-4.78
		c0.36-1.5,0.79-2.82,1.29-3.96c0.5-1.13,1.07-2.03,1.71-2.7c0.64-0.66,1.38-1,2.2-1c0.64,0,1.23,0.15,1.74,0.45
		c0.52,0.3,0.95,0.8,1.3,1.48c0.35,0.68,0.62,1.57,0.82,2.67c0.19,1.09,0.29,2.43,0.29,4.01c0,1.95-0.21,3.97-0.62,6.05
		s-0.97,4.17-1.67,6.28s-1.53,4.21-2.49,6.31c-0.96,2.1-1.98,4.15-3.08,6.14c0.49,2.48,1.14,4.43,1.96,5.84
		c0.82,1.42,1.81,2.12,2.96,2.12c0.78,0,1.53-0.31,2.26-0.92c0.72-0.62,1.39-1.34,1.99-2.18c0.6-0.84,1.14-1.69,1.6-2.56
		c0.46-0.87,0.82-1.57,1.07-2.09c0.1-0.19,0.23-0.35,0.41-0.45c0.18-0.11,0.37-0.16,0.59-0.16c0.33,0,0.6,0.12,0.81,0.35
		s0.31,0.5,0.31,0.79C308,89.25,307.96,89.41,307.88,89.6z M293.2,77.83c0,1.25,0.03,2.45,0.09,3.6c0.06,1.15,0.14,2.26,0.23,3.31
		c0.82-1.58,1.6-3.27,2.34-5.05c0.74-1.79,1.4-3.59,1.96-5.42c0.57-1.83,1.02-3.64,1.36-5.45c0.34-1.81,0.51-3.53,0.51-5.17
		c0-2.3-0.19-3.96-0.56-4.95c-0.37-1-0.87-1.49-1.49-1.49c-0.41,0-0.81,0.28-1.19,0.85c-0.38,0.57-0.74,1.34-1.07,2.31
		c-0.33,0.98-0.63,2.13-0.91,3.46c-0.27,1.33-0.5,2.75-0.69,4.28c-0.19,1.52-0.33,3.12-0.44,4.78
		C293.26,74.54,293.2,76.19,293.2,77.83z"/>
	<path class="st16" d="M309.41,94.5c0.41,0.57,0.94,1.02,1.58,1.36c0.64,0.34,1.44,0.51,2.37,0.51c0.96,0,1.83-0.23,2.61-0.69
		c0.78-0.46,1.49-1.06,2.14-1.8c0.64-0.74,1.22-1.57,1.73-2.49c0.51-0.92,0.97-1.84,1.38-2.75c0.1-0.21,0.23-0.38,0.41-0.48
		c0.18-0.11,0.37-0.16,0.59-0.16c0.33,0,0.6,0.12,0.81,0.35s0.31,0.49,0.31,0.76c0,0.1-0.01,0.18-0.03,0.25
		c-0.02,0.07-0.05,0.14-0.09,0.22c-1.35,2.97-2.82,5.21-4.41,6.71c-1.59,1.5-3.39,2.27-5.41,2.31c-1.29,0-2.4-0.25-3.34-0.75
		s-1.71-1.14-2.31-1.93c-0.61-0.79-1.05-1.68-1.35-2.68s-0.44-1.99-0.44-2.99s0.12-1.91,0.37-2.75c0.24-0.84,0.6-1.57,1.05-2.2
		c0.46-0.62,1.01-1.11,1.64-1.46c0.63-0.35,1.33-0.53,2.09-0.53c0.45,0,0.89,0.09,1.33,0.28c0.44,0.19,0.83,0.45,1.19,0.79
		c0.35,0.34,0.63,0.76,0.85,1.25c0.21,0.49,0.32,1.04,0.32,1.67c0,0.8-0.14,1.55-0.41,2.26c-0.27,0.7-0.65,1.36-1.13,1.96
		c-0.48,0.61-1.05,1.16-1.71,1.67C310.88,93.69,310.17,94.13,309.41,94.5z M308.53,92.59c0.6-0.25,1.16-0.58,1.66-0.97
		c0.5-0.39,0.92-0.82,1.27-1.29s0.62-0.96,0.82-1.48c0.19-0.52,0.29-1.04,0.29-1.57c0-0.59-0.15-1.03-0.44-1.33
		c-0.29-0.3-0.63-0.45-1.03-0.45c-0.53,0-0.98,0.15-1.35,0.44c-0.37,0.29-0.67,0.67-0.91,1.14s-0.41,0.99-0.51,1.57
		c-0.11,0.58-0.16,1.15-0.16,1.71c0,0.35,0.03,0.72,0.1,1.11C308.35,91.87,308.43,92.24,308.53,92.59z"/>
	<path class="st16" d="M324.29,85.68c-0.08,0.53-0.18,1.02-0.29,1.48c-0.12,0.46-0.23,0.86-0.34,1.2c-0.11,0.34-0.2,0.62-0.28,0.83
		c-0.08,0.22-0.13,0.33-0.15,0.35c-0.2,0.45-0.54,0.67-1.03,0.67c-0.27,0-0.53-0.1-0.76-0.31s-0.35-0.46-0.35-0.78
		c0-0.12,0.02-0.21,0.06-0.26c0.04-0.06,0.1-0.18,0.18-0.35c0.08-0.18,0.18-0.47,0.29-0.88s0.26-1.04,0.44-1.9
		c-0.33,0-0.67-0.01-1.03-0.03c-0.35-0.02-0.68-0.09-0.98-0.21s-0.55-0.3-0.75-0.56c-0.19-0.25-0.29-0.6-0.29-1.05
		c0-0.33,0.09-0.78,0.28-1.35c0.19-0.57,0.44-1.12,0.75-1.67c0.31-0.55,0.66-1.02,1.05-1.42c0.39-0.4,0.78-0.6,1.17-0.6
		c0.45,0,0.82,0.17,1.1,0.5c0.28,0.33,0.5,0.74,0.66,1.22c0.16,0.48,0.27,0.98,0.34,1.51c0.07,0.53,0.1,0.99,0.1,1.38
		c0.33,0,0.66,0,0.98-0.01c0.32-0.01,0.63-0.01,0.92-0.01c1.11,0,1.96,0.24,2.55,0.73c0.59,0.49,0.88,1.29,0.88,2.4
		c0,0.45-0.03,0.92-0.09,1.41c-0.06,0.49-0.13,0.99-0.21,1.51c-0.08,0.52-0.15,1.03-0.21,1.54c-0.06,0.51-0.09,1.01-0.09,1.49
		c0,0.7,0.1,1.28,0.29,1.74c0.19,0.46,0.44,0.83,0.73,1.1c0.29,0.27,0.6,0.46,0.94,0.57c0.33,0.11,0.63,0.16,0.91,0.16
		c0.84,0,1.63-0.27,2.37-0.82c0.74-0.55,1.42-1.21,2.05-1.98c0.62-0.77,1.19-1.59,1.68-2.45c0.5-0.86,0.91-1.61,1.25-2.26
		c0.1-0.18,0.23-0.31,0.41-0.41c0.18-0.1,0.36-0.15,0.56-0.15c0.35,0,0.62,0.11,0.82,0.34c0.19,0.22,0.29,0.47,0.29,0.75
		c0,0.2-0.04,0.37-0.12,0.53c-0.45,0.8-0.97,1.7-1.57,2.71c-0.6,1.01-1.27,1.95-2.04,2.83s-1.62,1.62-2.56,2.23
		c-0.95,0.6-1.99,0.91-3.12,0.91c-0.7,0-1.37-0.13-1.99-0.4c-0.63-0.26-1.17-0.64-1.63-1.14c-0.46-0.5-0.83-1.11-1.1-1.85
		c-0.27-0.73-0.41-1.56-0.41-2.48c0-0.98,0.1-1.95,0.29-2.92c0.19-0.97,0.29-1.89,0.29-2.77c0-0.37-0.08-0.65-0.25-0.83
		c-0.17-0.19-0.53-0.28-1.1-0.28c-0.27,0-0.57,0-0.89,0S324.66,85.66,324.29,85.68z M322.33,83.51c0-0.14,0-0.32-0.01-0.54
		c-0.01-0.22-0.03-0.44-0.06-0.66c-0.03-0.21-0.07-0.4-0.12-0.56c-0.05-0.16-0.1-0.23-0.16-0.23s-0.13,0.07-0.22,0.22
		s-0.18,0.32-0.28,0.53c-0.1,0.21-0.19,0.42-0.26,0.66c-0.08,0.23-0.14,0.43-0.18,0.59H322.33z"/>
</g>
<g>
	<path class="st16" d="M72.03,246.83h-8.62c-0.2,2.26-0.73,6.21-0.9,7.43c0.78-0.92,2.17-1.66,4.59-1.66c4.32,0,6.05,2.58,6.05,6.15
		c0,3.7-1.57,7-6.61,7c-4.98,0-6.15-2.63-6.35-4.9h1.87c0.16,1.41,0.74,3.7,4.52,3.7c3.51,0,4.65-2.53,4.65-5.72
		c0-2.69-0.98-5.01-4.29-5.01c-2.69,0-3.95,1.14-4.65,2.74l-1.75-0.3c0.37-2.19,0.99-7.49,1.28-10.63h10.49L72.03,246.83z"/>
	<path class="st16" d="M82.71,250.46h3.04v-4.16h1.75v4.16h3.85v1.21H87.5v10.93c0,1.13,0.37,1.88,1.97,1.88
		c0.49,0,1.26-0.03,1.63-0.09v1.08c-0.58,0.15-1.46,0.21-2.12,0.21c-1.84,0-3.24-0.61-3.24-2.75v-11.26h-3.04V250.46z"/>
	<path class="st16" d="M106.31,257.76c0,5.17-2.23,7.98-6.61,7.98c-4.61,0-6.68-2.72-6.68-7.95c0-5.14,2.6-7.57,6.73-7.57
		C103.96,250.22,106.31,252.71,106.31,257.76z M94.89,257.82c0,4.65,1.83,6.71,4.77,6.71c3.02,0,4.77-2.12,4.77-6.77
		c0-4.18-1.67-6.33-4.77-6.33C96.76,251.43,94.89,253.2,94.89,257.82z"/>
	<path class="st16" d="M129.05,245.61v1.15c-3.69,4.88-6.97,12-8.32,18.71h-1.92c1.11-6.07,4.92-14.25,8.41-18.59H116.2v-1.27
		H129.05z"/>
	<path class="st16" d="M141.9,263.68v7.37h-1.79v-16.18c0-2.07,0-3.48-0.04-4.41h1.75c0.04,0.24,0.08,1.4,0.08,2.27
		c0.78-1.52,2.37-2.51,5.09-2.51c3.94,0,6,2.61,6,7.56c0,5.09-2.51,7.96-6.58,7.96C143.71,265.74,142.48,264.73,141.9,263.68z
		 M151.12,257.85c0-3.9-1.31-6.39-4.45-6.39c-3.71,0-4.85,2.59-4.85,6.53c0,3.66,0.61,6.51,4.57,6.51
		C149.49,264.5,151.12,261.77,151.12,257.85z"/>
	<path class="st16" d="M157.29,265.47v-21.39h1.79v21.39H157.29z"/>
	<path class="st16" d="M175.15,263.23c0,1.07,0.12,1.91,0.16,2.25h-1.66c-0.12-0.36-0.21-1.25-0.21-1.91
		c-0.74,1.4-2.42,2.18-5.01,2.18c-3.95,0-5.31-2.22-5.31-4.27c0-2.53,2.32-4.72,7.82-4.72c1.14,0,1.76,0,2.45,0.06v-2.24
		c0-1.37-0.41-3.15-3.67-3.15c-3.7,0-3.87,1.99-3.99,3.01h-1.79c0.08-2.1,1.48-4.21,5.83-4.21c3.72,0,5.38,1.38,5.38,4.09V263.23z
		 M173.44,258.02c-0.53-0.06-1.19-0.09-2.37-0.09c-4.28,0-6.11,1.52-6.11,3.48c0,1.69,1.26,3.12,3.75,3.12
		c3.39,0,4.73-1.7,4.73-5.48V258.02z"/>
	<path class="st16" d="M179.88,250.46c2.69,7.24,4.57,12,4.86,13.48h0.04c0.37-1.46,2.53-7.1,4.86-13.48h1.96l-6.08,15.82
		c-1.61,4.21-2.74,5.01-5.7,5.01c-0.37,0-0.91-0.03-1.21-0.09v-1.27c0.29,0.06,0.83,0.09,1.28,0.09c2.37,0,2.95-1.34,3.97-4.16
		l-5.93-15.4H179.88z"/>
	<path class="st16" d="M195.61,258.04c0,3.62,0.93,6.49,4.61,6.49c3.79,0,4.28-2.73,4.4-3.16h1.83c-0.04,0.33-0.7,4.36-6.24,4.36
		c-5.66,0-6.44-4.02-6.44-7.72c0-4.74,2.07-7.8,6.65-7.8c5.04,0,6.2,3.24,6.2,6.88c0,0.13,0,0.5-0.04,0.94H195.61z M204.79,256.87
		c0-3.32-1.09-5.44-4.4-5.44c-4.44,0-4.65,4.45-4.73,5.44H204.79z"/>
	<path class="st16" d="M210.79,255.59c0-2.34,0-4.05-0.04-5.13h1.75c0.04,0.48,0.08,1.22,0.08,2.81c0.94-1.89,3.03-3,5.47-3.03v1.41
		c-3.65,0.17-5.46,2.39-5.46,5.1v8.72h-1.79V255.59z"/>
	<path class="st16" d="M221.42,261.29c0.2,1.99,1.66,3.25,4.28,3.25c2.69,0,3.99-1.25,3.99-2.88c0-1.87-1.38-2.68-4.25-3.51
		c-3.85-1.12-5.12-2.14-5.12-4.19c0-1.98,1.65-3.74,5.38-3.74c4.06,0,5.38,2,5.42,4.01h-1.83c-0.08-0.83-0.4-2.8-3.67-2.8
		c-2.4,0-3.42,1.07-3.42,2.5c0,1.37,0.7,2.06,3.81,2.95c3.72,1.08,5.56,2.05,5.56,4.72c0,2.59-2.23,4.15-5.99,4.15
		c-3.81,0-5.83-1.69-5.99-4.45H221.42z"/>
	<path class="st16" d="M61.57,317.04H73.5v1.24H63.41v7.8h9.44v1.24h-9.44v10.14h-1.84V317.04z"/>
	<path class="st16" d="M87,335.23c0,1.07,0.12,1.91,0.16,2.25H85.5c-0.12-0.36-0.21-1.25-0.21-1.91c-0.74,1.4-2.42,2.18-5.01,2.18
		c-3.95,0-5.31-2.22-5.31-4.27c0-2.54,2.32-4.72,7.82-4.72c1.14,0,1.76,0,2.45,0.06v-2.24c0-1.37-0.41-3.15-3.67-3.15
		c-3.7,0-3.87,1.99-3.99,3.01H75.8c0.08-2.1,1.48-4.21,5.83-4.21c3.72,0,5.38,1.38,5.38,4.09V335.23z M85.29,330.02
		c-0.53-0.06-1.19-0.09-2.37-0.09c-4.28,0-6.11,1.52-6.11,3.48c0,1.69,1.26,3.12,3.75,3.12c3.39,0,4.73-1.7,4.73-5.48V330.02z"/>
	<path class="st16" d="M101.97,333.22h1.87c-0.08,0.53-0.57,4.52-6.07,4.52c-5.04,0-6.48-3.48-6.48-7.78c0-4.37,1.93-7.74,6.76-7.74
		c5.46,0,5.78,3.88,5.79,4.46h-1.88c-0.04-0.63-0.44-3.25-3.91-3.25c-3.54,0-4.89,2.8-4.89,6.51c0,4.06,1.42,6.6,4.68,6.6
		C101.32,336.53,101.8,333.97,101.97,333.22L101.97,333.22z"/>
	<path class="st16" d="M107.77,322.46h1.79v15.01h-1.79V322.46z M107.77,316.08h1.79v2.89h-1.79V316.08z"/>
	<path class="st16" d="M115.07,333.29c0.2,1.99,1.66,3.25,4.28,3.25c2.69,0,3.99-1.25,3.99-2.88c0-1.87-1.38-2.68-4.25-3.51
		c-3.85-1.12-5.12-2.14-5.12-4.19c0-1.98,1.65-3.74,5.38-3.74c4.06,0,5.38,2,5.42,4.01h-1.83c-0.08-0.83-0.4-2.8-3.67-2.8
		c-2.4,0-3.42,1.07-3.42,2.5c0,1.37,0.7,2.06,3.81,2.95c3.72,1.08,5.56,2.05,5.56,4.72c0,2.59-2.23,4.15-5.99,4.15
		c-3.81,0-5.83-1.69-5.99-4.45H115.07z"/>
	<path class="st16" d="M126.8,323.67v-1.21h3.04v-4.16h1.75v4.16h3.85v1.21h-3.85v10.93c0,1.13,0.37,1.88,1.97,1.88
		c0.49,0,1.26-0.03,1.63-0.09v1.08c-0.58,0.15-1.46,0.21-2.12,0.21c-1.84,0-3.24-0.61-3.24-2.75v-11.26H126.8L126.8,323.67z"/>
	<path class="st16" d="M149.38,335.23c0,1.07,0.12,1.91,0.16,2.25h-1.66c-0.12-0.36-0.21-1.25-0.21-1.91
		c-0.74,1.4-2.42,2.18-5.01,2.18c-3.95,0-5.31-2.22-5.31-4.27c0-2.54,2.32-4.72,7.82-4.72c1.14,0,1.76,0,2.45,0.06v-2.24
		c0-1.37-0.41-3.15-3.67-3.15c-3.7,0-3.87,1.99-3.99,3.01h-1.79c0.08-2.1,1.48-4.21,5.83-4.21c3.72,0,5.38,1.38,5.38,4.09V335.23z
		 M147.67,330.02c-0.53-0.06-1.19-0.09-2.37-0.09c-4.28,0-6.11,1.52-6.11,3.48c0,1.69,1.26,3.12,3.75,3.12
		c3.39,0,4.73-1.7,4.73-5.48V330.02z"/>
	<path class="st16" d="M154.65,333.29c0.2,1.99,1.66,3.25,4.28,3.25c2.69,0,3.99-1.25,3.99-2.88c0-1.87-1.38-2.68-4.25-3.51
		c-3.85-1.12-5.12-2.14-5.12-4.19c0-1.98,1.65-3.74,5.38-3.74c4.06,0,5.38,2,5.42,4.01h-1.83c-0.08-0.83-0.4-2.8-3.67-2.8
		c-2.4,0-3.42,1.07-3.42,2.5c0,1.37,0.7,2.06,3.81,2.95c3.72,1.08,5.56,2.05,5.56,4.72c0,2.59-2.23,4.15-5.99,4.15
		c-3.81,0-5.83-1.69-5.99-4.45H154.65z"/>
	<path class="st16" d="M177.57,330.04c0,3.62,0.93,6.49,4.61,6.49c3.79,0,4.28-2.73,4.4-3.16h1.83c-0.04,0.33-0.7,4.36-6.24,4.36
		c-5.66,0-6.44-4.02-6.44-7.72c0-4.74,2.07-7.8,6.65-7.8c5.04,0,6.2,3.24,6.2,6.88c0,0.13,0,0.5-0.04,0.94H177.57z M186.75,328.87
		c0-3.32-1.09-5.44-4.4-5.44c-4.44,0-4.65,4.45-4.73,5.44H186.75z"/>
	<path class="st16" d="M200.76,337.47v-21.39h1.79v21.39H200.76z"/>
	<path class="st16" d="M207.87,322.46h1.79v15.01h-1.79V322.46z M207.87,316.08h1.79v2.89h-1.79V316.08z"/>
	<path class="st16" d="M215.15,316.08h1.79v8.7c0.62-1.28,2.1-2.56,5.13-2.56c3.75,0,6,2.2,6,7.38c0,4.57-1.76,8.11-6.54,8.11
		c-2.59,0-3.98-0.96-4.63-2.21c0,0.59-0.04,1.28-0.12,1.97h-1.67c0.04-0.67,0.04-2,0.04-4.06V316.08z M226.2,329.64
		c0-4.32-1.62-6.18-4.37-6.18c-3.75,0-4.97,2.61-4.97,6.51c0,3.66,0.9,6.51,4.61,6.51C224.53,336.47,226.2,334.27,226.2,329.64z"/>
	<path class="st16" d="M233.05,330.04c0,3.62,0.93,6.49,4.61,6.49c3.79,0,4.28-2.73,4.4-3.16h1.83c-0.04,0.33-0.7,4.36-6.24,4.36
		c-5.66,0-6.44-4.02-6.44-7.72c0-4.74,2.07-7.8,6.65-7.8c5.04,0,6.2,3.24,6.2,6.88c0,0.13,0,0.5-0.04,0.94H233.05z M242.23,328.87
		c0-3.32-1.09-5.44-4.4-5.44c-4.44,0-4.65,4.45-4.73,5.44H242.23z"/>
	<path class="st16" d="M248.23,327.59c0-2.34,0-4.05-0.04-5.13h1.75c0.04,0.48,0.08,1.22,0.08,2.81c0.94-1.89,3.03-3,5.47-3.03v1.41
		c-3.65,0.17-5.46,2.39-5.46,5.1v8.72h-1.79V327.59z"/>
	<path class="st16" d="M268.88,335.23c0,1.07,0.12,1.91,0.16,2.25h-1.66c-0.12-0.36-0.21-1.25-0.21-1.91
		c-0.74,1.4-2.42,2.18-5.01,2.18c-3.95,0-5.31-2.22-5.31-4.27c0-2.54,2.32-4.72,7.82-4.72c1.14,0,1.76,0,2.45,0.06v-2.24
		c0-1.37-0.41-3.15-3.67-3.15c-3.7,0-3.87,1.99-3.99,3.01h-1.79c0.08-2.1,1.48-4.21,5.83-4.21c3.72,0,5.38,1.38,5.38,4.09V335.23z
		 M267.17,330.02c-0.53-0.06-1.19-0.09-2.37-0.09c-4.28,0-6.11,1.52-6.11,3.48c0,1.69,1.26,3.12,3.75,3.12
		c3.39,0,4.73-1.7,4.73-5.48V330.02z"/>
	<path class="st16" d="M274.24,322.46h1.79v15.01h-1.79V322.46z M274.24,316.08h1.79v2.89h-1.79V316.08z"/>
	<path class="st16" d="M281.55,333.29c0.2,1.99,1.66,3.25,4.28,3.25c2.69,0,3.99-1.25,3.99-2.88c0-1.87-1.38-2.68-4.25-3.51
		c-3.85-1.12-5.12-2.14-5.12-4.19c0-1.98,1.65-3.74,5.38-3.74c4.06,0,5.38,2,5.42,4.01h-1.83c-0.08-0.83-0.4-2.8-3.67-2.8
		c-2.4,0-3.42,1.07-3.42,2.5c0,1.37,0.7,2.06,3.81,2.95c3.72,1.08,5.56,2.05,5.56,4.72c0,2.59-2.23,4.15-5.99,4.15
		c-3.81,0-5.83-1.69-5.99-4.45H281.55z"/>
	<path class="st16" d="M303.71,327.08c0-3.06-0.04-3.99-0.04-4.62h1.75c0.04,0.36,0.08,0.93,0.08,2.24c0.74-1.4,2.25-2.48,5.09-2.48
		c2.73,0,5.3,1.03,5.3,4.56v10.69h-1.83v-10.49c0-2.06-1.09-3.52-3.71-3.52c-3.42,0-4.8,1.72-4.8,5.32v8.69h-1.83V327.08z"/>
	<path class="st16" d="M333.23,333.56c0,1.69,0,3.22,0.04,3.91h-1.71c-0.08-0.42-0.12-0.96-0.12-2.24
		c-0.62,1.56-2.51,2.51-5.09,2.51c-2.04,0-5.14-0.49-5.14-4.47v-10.81h1.84v10.47c0,2.21,0.93,3.6,3.71,3.6
		c2.57,0,4.65-1.22,4.65-5.03v-9.04h1.83V333.56z"/>
	<path class="st16" d="M338.51,326.96c0-2.47,0-3.75-0.04-4.5h1.75c0.08,0.53,0.08,1.34,0.08,2.18c0.75-1.41,2.15-2.42,4.64-2.42
		c2.1,0,3.7,0.63,4.31,2.36c0.66-1.31,2.3-2.36,4.94-2.36c2.32,0,4.82,0.79,4.82,4.27v10.98h-1.79v-10.71c0-1.73-0.66-3.3-3.39-3.3
		c-3.06,0-4.16,2.11-4.16,4.23v9.78h-1.79v-10.65c0-2.17-0.98-3.36-3.3-3.36c-2.82,0-4.28,2.08-4.28,4.53v9.48h-1.79V326.96z"/>
	<path class="st16" d="M374.91,335.23c0,1.07,0.12,1.91,0.16,2.25h-1.66c-0.12-0.36-0.21-1.25-0.21-1.91
		c-0.74,1.4-2.42,2.18-5.01,2.18c-3.95,0-5.31-2.22-5.31-4.27c0-2.54,2.32-4.72,7.82-4.72c1.14,0,1.76,0,2.45,0.06v-2.24
		c0-1.37-0.41-3.15-3.67-3.15c-3.7,0-3.87,1.99-3.99,3.01h-1.79c0.08-2.1,1.48-4.21,5.83-4.21c3.72,0,5.38,1.38,5.38,4.09V335.23z
		 M373.2,330.02c-0.53-0.06-1.19-0.09-2.37-0.09c-4.28,0-6.11,1.52-6.11,3.48c0,1.69,1.26,3.12,3.75,3.12c3.39,0,4.73-1.7,4.73-5.48
		V330.02z"/>
	<path class="st16" d="M61.29,352.08h1.79v8.7c0.62-1.28,2.1-2.56,5.13-2.56c3.75,0,6,2.2,6,7.38c0,4.57-1.76,8.11-6.54,8.11
		c-2.59,0-3.98-0.96-4.63-2.21c0,0.59-0.04,1.29-0.12,1.97h-1.67c0.04-0.67,0.04-2,0.04-4.06V352.08z M72.34,365.64
		c0-4.32-1.62-6.18-4.37-6.18c-3.75,0-4.97,2.61-4.97,6.51c0,3.66,0.9,6.5,4.61,6.5C70.67,372.47,72.34,370.27,72.34,365.64z"/>
	<path class="st16" d="M89.18,371.23c0,1.07,0.12,1.91,0.16,2.25h-1.66c-0.12-0.36-0.21-1.25-0.21-1.91
		c-0.74,1.4-2.42,2.18-5.01,2.18c-3.95,0-5.31-2.22-5.31-4.27c0-2.53,2.32-4.72,7.82-4.72c1.14,0,1.76,0,2.45,0.06v-2.24
		c0-1.37-0.41-3.15-3.67-3.15c-3.7,0-3.87,1.99-3.99,3.01h-1.79c0.08-2.1,1.48-4.21,5.83-4.21c3.72,0,5.38,1.38,5.38,4.09V371.23z
		 M87.47,366.02c-0.53-0.06-1.19-0.09-2.37-0.09c-4.28,0-6.11,1.52-6.11,3.48c0,1.69,1.26,3.13,3.75,3.13c3.39,0,4.73-1.7,4.73-5.48
		V366.02z"/>
	<path class="st16" d="M91.79,359.67v-1.21h3.04v-4.16h1.75v4.16h3.85v1.21h-3.85v10.93c0,1.13,0.37,1.88,1.97,1.88
		c0.49,0,1.26-0.03,1.63-0.09v1.08c-0.58,0.15-1.46,0.21-2.12,0.21c-1.84,0-3.24-0.61-3.24-2.75v-11.26H91.79L91.79,359.67z"/>
	<path class="st16" d="M114.37,371.23c0,1.07,0.12,1.91,0.16,2.25h-1.66c-0.12-0.36-0.21-1.25-0.21-1.91
		c-0.74,1.4-2.42,2.18-5.01,2.18c-3.95,0-5.31-2.22-5.31-4.27c0-2.53,2.32-4.72,7.82-4.72c1.14,0,1.76,0,2.45,0.06v-2.24
		c0-1.37-0.41-3.15-3.67-3.15c-3.7,0-3.87,1.99-3.99,3.01h-1.79c0.08-2.1,1.48-4.21,5.83-4.21c3.72,0,5.38,1.38,5.38,4.09V371.23z
		 M112.66,366.02c-0.53-0.06-1.19-0.09-2.37-0.09c-4.28,0-6.11,1.52-6.11,3.48c0,1.69,1.26,3.13,3.75,3.13
		c3.39,0,4.73-1.7,4.73-5.48V366.02z"/>
	<path class="st16" d="M119.73,373.47v-21.39h1.79v21.39H119.73z"/>
	<path class="st16" d="M128.83,352.08v8.46c0.7-1.4,2.5-2.33,5.13-2.33c2.77,0,5.22,1.21,5.22,4.54v10.71h-1.84v-10.44
		c0-2.09-0.97-3.58-3.83-3.58c-3.3,0-4.68,2.05-4.68,5.09v8.92H127v-21.39H128.83z"/>
	<path class="st16" d="M154.97,371.23c0,1.07,0.12,1.91,0.16,2.25h-1.66c-0.12-0.36-0.21-1.25-0.21-1.91
		c-0.74,1.4-2.42,2.18-5.01,2.18c-3.95,0-5.31-2.22-5.31-4.27c0-2.53,2.32-4.72,7.82-4.72c1.14,0,1.76,0,2.45,0.06v-2.24
		c0-1.37-0.41-3.15-3.67-3.15c-3.7,0-3.87,1.99-3.99,3.01h-1.79c0.08-2.1,1.48-4.21,5.83-4.21c3.72,0,5.38,1.38,5.38,4.09V371.23z
		 M153.26,366.02c-0.53-0.06-1.19-0.09-2.37-0.09c-4.28,0-6.11,1.52-6.11,3.48c0,1.69,1.26,3.13,3.75,3.13
		c3.39,0,4.73-1.7,4.73-5.48V366.02z"/>
	<path class="st16" d="M169.11,366.04c0,3.62,0.93,6.49,4.61,6.49c3.79,0,4.28-2.73,4.4-3.16h1.83c-0.04,0.33-0.7,4.36-6.24,4.36
		c-5.66,0-6.44-4.02-6.44-7.72c0-4.74,2.07-7.8,6.65-7.8c5.04,0,6.2,3.24,6.2,6.88c0,0.13,0,0.5-0.04,0.94H169.11z M178.28,364.87
		c0-3.32-1.09-5.45-4.4-5.45c-4.44,0-4.65,4.45-4.73,5.45H178.28z"/>
	<path class="st16" d="M184.29,362.96c0-2.47,0-3.75-0.04-4.5h1.75c0.08,0.54,0.08,1.34,0.08,2.18c0.74-1.41,2.15-2.42,4.64-2.42
		c2.1,0,3.7,0.63,4.31,2.36c0.66-1.31,2.3-2.36,4.94-2.36c2.32,0,4.82,0.79,4.82,4.27v10.98H203v-10.71c0-1.73-0.66-3.3-3.39-3.3
		c-3.06,0-4.16,2.11-4.16,4.23v9.78h-1.79v-10.65c0-2.17-0.98-3.36-3.31-3.36c-2.82,0-4.28,2.08-4.28,4.53v9.48h-1.79V362.96z"/>
	<path class="st16" d="M217.9,352.08h1.79v8.7c0.62-1.28,2.1-2.56,5.13-2.56c3.75,0,6,2.2,6,7.38c0,4.57-1.76,8.11-6.54,8.11
		c-2.59,0-3.98-0.96-4.63-2.21c0,0.59-0.04,1.29-0.12,1.97h-1.67c0.04-0.67,0.04-2,0.04-4.06V352.08z M228.95,365.64
		c0-4.32-1.62-6.18-4.37-6.18c-3.75,0-4.97,2.61-4.97,6.51c0,3.66,0.9,6.5,4.61,6.5C227.28,372.47,228.95,370.27,228.95,365.64z"/>
	<path class="st16" d="M247.02,369.56c0,1.69,0,3.22,0.04,3.91h-1.71c-0.08-0.42-0.12-0.96-0.12-2.24
		c-0.62,1.56-2.51,2.51-5.09,2.51c-2.04,0-5.14-0.49-5.14-4.47v-10.81h1.83v10.47c0,2.21,0.93,3.6,3.71,3.6
		c2.57,0,4.64-1.22,4.64-5.03v-9.04h1.84V369.56z"/>
	<path class="st16" d="M252.49,369.29c0.2,1.99,1.66,3.25,4.28,3.25c2.69,0,3.99-1.25,3.99-2.88c0-1.87-1.38-2.68-4.25-3.51
		c-3.85-1.12-5.12-2.14-5.12-4.18c0-1.98,1.65-3.74,5.38-3.74c4.06,0,5.38,2,5.42,4.01h-1.83c-0.08-0.83-0.4-2.8-3.67-2.8
		c-2.4,0-3.42,1.07-3.42,2.5c0,1.37,0.7,2.06,3.81,2.95c3.72,1.08,5.56,2.05,5.56,4.72c0,2.59-2.23,4.15-5.99,4.15
		c-3.81,0-5.83-1.69-5.99-4.45H252.49z"/>
	<path class="st16" d="M278.12,369.22c-0.08,0.53-0.57,4.52-6.07,4.52c-5.04,0-6.48-3.48-6.48-7.78c0-4.38,1.93-7.74,6.76-7.74
		c5.46,0,5.78,3.88,5.79,4.46h-1.88c-0.04-0.63-0.44-3.25-3.91-3.25c-3.54,0-4.89,2.8-4.89,6.51c0,4.06,1.42,6.6,4.68,6.6
		c3.47,0,3.95-2.56,4.12-3.31H278.12z"/>
	<path class="st16" d="M292.97,371.23c0,1.07,0.12,1.91,0.16,2.25h-1.66c-0.12-0.36-0.21-1.25-0.21-1.91
		c-0.74,1.4-2.42,2.18-5.01,2.18c-3.95,0-5.31-2.22-5.31-4.27c0-2.53,2.32-4.72,7.82-4.72c1.14,0,1.76,0,2.45,0.06v-2.24
		c0-1.37-0.41-3.15-3.67-3.15c-3.7,0-3.87,1.99-3.99,3.01h-1.79c0.08-2.1,1.48-4.21,5.83-4.21c3.72,0,5.38,1.38,5.38,4.09V371.23z
		 M291.26,366.02c-0.53-0.06-1.19-0.09-2.37-0.09c-4.28,0-6.11,1.52-6.11,3.48c0,1.69,1.26,3.13,3.75,3.13
		c3.39,0,4.73-1.7,4.73-5.48V366.02z"/>
	<path class="st16" d="M318.2,352.08v17.74c0,1.24,0,2.74,0.04,3.64h-1.75c-0.04-0.39-0.08-1.52-0.08-2.3
		c-0.66,1.46-2.01,2.57-5.01,2.57c-4.24,0-6.13-2.53-6.13-7.95c0-4.92,2.66-7.57,6.67-7.57c2.94,0,3.97,0.98,4.46,1.82v-7.95H318.2z
		 M307.15,365.79c0,4.89,1.67,6.68,4.53,6.68c3.67,0,4.73-2.38,4.73-6.75c0-4.98-1.13-6.27-4.48-6.27
		C309.14,359.46,307.15,361.36,307.15,365.79z"/>
	<path class="st16" d="M334.27,371.23c0,1.07,0.12,1.91,0.16,2.25h-1.67c-0.12-0.36-0.21-1.25-0.21-1.91
		c-0.74,1.4-2.42,2.18-5.01,2.18c-3.95,0-5.31-2.22-5.31-4.27c0-2.53,2.32-4.72,7.82-4.72c1.14,0,1.76,0,2.45,0.06v-2.24
		c0-1.37-0.41-3.15-3.67-3.15c-3.7,0-3.87,1.99-3.99,3.01h-1.79c0.08-2.1,1.48-4.21,5.83-4.21c3.72,0,5.38,1.38,5.38,4.09V371.23z
		 M332.56,366.02c-0.53-0.06-1.19-0.09-2.37-0.09c-4.28,0-6.11,1.52-6.11,3.48c0,1.69,1.26,3.13,3.75,3.13
		c3.39,0,4.73-1.7,4.73-5.48V366.02z"/>
	<path class="st16" d="M347.39,358.46c1.96,5.26,4.44,11.94,4.81,13.34h0.04c0.21-1.23,4.19-11.11,5.02-13.34h1.84l-5.96,15.01
		h-1.96l-5.67-15.01H347.39z"/>
	<path class="st16" d="M362.96,366.04c0,3.62,0.93,6.49,4.61,6.49c3.79,0,4.28-2.73,4.4-3.16h1.83c-0.04,0.33-0.7,4.36-6.24,4.36
		c-5.66,0-6.44-4.02-6.44-7.72c0-4.74,2.07-7.8,6.65-7.8c5.04,0,6.2,3.24,6.2,6.88c0,0.13,0,0.5-0.04,0.94H362.96z M372.13,364.87
		c0-3.32-1.09-5.45-4.4-5.45c-4.44,0-4.65,4.45-4.73,5.45H372.13z"/>
	<path class="st16" d="M378.13,363.59c0-2.34,0-4.05-0.04-5.13h1.75c0.04,0.48,0.08,1.22,0.08,2.81c0.94-1.89,3.03-3,5.47-3.03v1.41
		c-3.65,0.17-5.46,2.39-5.46,5.1v8.72h-1.79V363.59z"/>
	<path class="st16" d="M399.94,352.08v17.74c0,1.24,0,2.74,0.04,3.64h-1.75c-0.04-0.39-0.08-1.52-0.08-2.3
		c-0.66,1.46-2.01,2.57-5.01,2.57c-4.24,0-6.13-2.53-6.13-7.95c0-4.92,2.66-7.57,6.67-7.57c2.94,0,3.97,0.98,4.46,1.82v-7.95H399.94
		z M388.89,365.79c0,4.89,1.67,6.68,4.53,6.68c3.67,0,4.73-2.38,4.73-6.75c0-4.98-1.13-6.27-4.48-6.27
		C390.88,359.46,388.89,361.36,388.89,365.79z"/>
	<path class="st16" d="M416.01,371.23c0,1.07,0.12,1.91,0.16,2.25h-1.66c-0.12-0.36-0.21-1.25-0.21-1.91
		c-0.74,1.4-2.42,2.18-5.01,2.18c-3.95,0-5.31-2.22-5.31-4.27c0-2.53,2.32-4.72,7.82-4.72c1.14,0,1.76,0,2.45,0.06v-2.24
		c0-1.37-0.41-3.15-3.67-3.15c-3.7,0-3.87,1.99-3.99,3.01h-1.79c0.08-2.1,1.48-4.21,5.83-4.21c3.72,0,5.38,1.38,5.38,4.09V371.23z
		 M414.3,366.02c-0.53-0.06-1.19-0.09-2.37-0.09c-4.28,0-6.11,1.52-6.11,3.48c0,1.69,1.26,3.13,3.75,3.13c3.39,0,4.73-1.7,4.73-5.48
		V366.02z"/>
	<path class="st16" d="M433.22,352.08v17.74c0,1.24,0,2.74,0.04,3.64h-1.75c-0.04-0.39-0.08-1.52-0.08-2.3
		c-0.66,1.46-2.01,2.57-5.01,2.57c-4.24,0-6.13-2.53-6.13-7.95c0-4.92,2.66-7.57,6.67-7.57c2.94,0,3.97,0.98,4.46,1.82v-7.95H433.22
		z M422.18,365.79c0,4.89,1.67,6.68,4.53,6.68c3.67,0,4.73-2.38,4.73-6.75c0-4.98-1.13-6.27-4.48-6.27
		C424.17,359.46,422.18,361.36,422.18,365.79z"/>
	<path class="st16" d="M439.31,366.04c0,3.62,0.93,6.49,4.61,6.49c3.79,0,4.28-2.73,4.4-3.16h1.83c-0.04,0.33-0.7,4.36-6.24,4.36
		c-5.66,0-6.44-4.02-6.44-7.72c0-4.74,2.07-7.8,6.65-7.8c5.04,0,6.2,3.24,6.2,6.88c0,0.13,0,0.5-0.04,0.94H439.31z M448.49,364.87
		c0-3.32-1.09-5.45-4.4-5.45c-4.44,0-4.65,4.45-4.73,5.45H448.49z"/>
	<path class="st16" d="M453.76,373.5v-3.83h1.8v3.83H453.76z"/>
	<path class="st16" d="M74.99,440c-0.12,1.28-0.94,5.74-7.1,5.74c-7.13,0-7.47-6.16-7.47-10.71c0-5.51,1.83-10.26,7.84-10.26
		c6.31,0,6.56,4.59,6.61,5.59h-1.92c-0.04-0.69-0.28-4.29-4.73-4.29c-5.21,0-5.83,5.4-5.83,8.94c0,4.6,0.73,9.44,5.59,9.44
		c4.21,0,4.97-3.25,5.1-4.44H74.99z"/>
	<path class="st16" d="M90.29,443.23c0,1.07,0.12,1.91,0.16,2.25h-1.66c-0.12-0.36-0.21-1.25-0.21-1.91
		c-0.74,1.4-2.42,2.18-5.01,2.18c-3.95,0-5.31-2.22-5.31-4.27c0-2.53,2.32-4.72,7.82-4.72c1.14,0,1.76,0,2.45,0.06v-2.24
		c0-1.37-0.41-3.15-3.67-3.15c-3.7,0-3.87,1.99-3.99,3.01h-1.79c0.08-2.1,1.48-4.21,5.83-4.21c3.72,0,5.38,1.38,5.38,4.09V443.23z
		 M88.57,438.02c-0.53-0.06-1.19-0.09-2.37-0.09c-4.28,0-6.11,1.52-6.11,3.48c0,1.69,1.26,3.13,3.75,3.13c3.39,0,4.73-1.7,4.73-5.48
		V438.02z"/>
	<path class="st16" d="M95.64,435.08c0-3.06-0.04-3.99-0.04-4.62h1.75c0.04,0.36,0.08,0.93,0.08,2.24c0.74-1.4,2.25-2.48,5.09-2.48
		c2.73,0,5.3,1.03,5.3,4.56v10.69h-1.83v-10.49c0-2.06-1.09-3.52-3.71-3.52c-3.42,0-4.8,1.72-4.8,5.32v8.69h-1.83V435.08z"/>
	<path class="st16" d="M132.9,441.56c0,1.69,0,3.22,0.04,3.91h-1.71c-0.08-0.42-0.12-0.96-0.12-2.24c-0.62,1.56-2.51,2.51-5.09,2.51
		c-2.04,0-5.14-0.49-5.14-4.47v-10.81h1.84v10.47c0,2.21,0.93,3.6,3.71,3.6c2.57,0,4.64-1.22,4.64-5.03v-9.04h1.84V441.56z"/>
	<path class="st16" d="M148.07,424.08v8.46c0.7-1.4,2.5-2.33,5.13-2.33c2.77,0,5.22,1.21,5.22,4.54v10.71h-1.84v-10.44
		c0-2.09-0.97-3.58-3.83-3.58c-3.3,0-4.68,2.05-4.68,5.09v8.92h-1.84v-21.39H148.07z"/>
	<path class="st16" d="M174.2,443.23c0,1.07,0.12,1.91,0.16,2.25h-1.66c-0.12-0.36-0.21-1.25-0.21-1.91
		c-0.74,1.4-2.42,2.18-5.01,2.18c-3.95,0-5.31-2.22-5.31-4.27c0-2.53,2.32-4.72,7.82-4.72c1.14,0,1.76,0,2.45,0.06v-2.24
		c0-1.37-0.41-3.15-3.67-3.15c-3.7,0-3.87,1.99-3.99,3.01H163c0.08-2.1,1.48-4.21,5.83-4.21c3.72,0,5.38,1.38,5.38,4.09V443.23z
		 M172.49,438.02c-0.53-0.06-1.19-0.09-2.37-0.09c-4.28,0-6.11,1.52-6.11,3.48c0,1.69,1.26,3.13,3.75,3.13
		c3.39,0,4.73-1.7,4.73-5.48V438.02z"/>
	<path class="st16" d="M179.56,435.08c0-3.06-0.04-3.99-0.04-4.62h1.75c0.04,0.36,0.08,0.93,0.08,2.24c0.74-1.4,2.25-2.48,5.09-2.48
		c2.73,0,5.3,1.03,5.3,4.56v10.69h-1.83v-10.49c0-2.06-1.09-3.52-3.71-3.52c-3.42,0-4.8,1.72-4.8,5.32v8.69h-1.83V435.08z"/>
	<path class="st16" d="M208.93,424.08v17.74c0,1.24,0,2.74,0.04,3.64h-1.75c-0.04-0.39-0.08-1.52-0.08-2.3
		c-0.66,1.46-2.01,2.57-5.01,2.57c-4.24,0-6.13-2.53-6.13-7.95c0-4.92,2.66-7.57,6.67-7.57c2.94,0,3.97,0.98,4.46,1.82v-7.95H208.93
		z M197.88,437.79c0,4.89,1.67,6.68,4.53,6.68c3.67,0,4.73-2.38,4.73-6.75c0-4.98-1.13-6.27-4.48-6.27
		C199.87,431.46,197.88,433.36,197.88,437.79z"/>
	<path class="st16" d="M214.37,445.47v-21.39h1.79v21.39H214.37z"/>
	<path class="st16" d="M222.24,438.04c0,3.62,0.93,6.49,4.61,6.49c3.79,0,4.28-2.73,4.4-3.16h1.83c-0.04,0.33-0.7,4.36-6.24,4.36
		c-5.66,0-6.44-4.02-6.44-7.72c0-4.74,2.07-7.8,6.65-7.8c5.04,0,6.2,3.24,6.2,6.88c0,0.13,0,0.5-0.04,0.94H222.24z M231.42,436.87
		c0-3.32-1.09-5.45-4.4-5.45c-4.44,0-4.65,4.45-4.73,5.45H231.42z"/>
	<path class="st16" d="M245.43,430.46h1.79v15.01h-1.79V430.46z M245.43,424.08h1.79v2.89h-1.79V424.08z"/>
	<path class="st16" d="M250.17,430.46h3.04v-4.16h1.75v4.16h3.85v1.21h-3.85v10.93c0,1.13,0.37,1.88,1.97,1.88
		c0.49,0,1.26-0.03,1.63-0.09v1.08c-0.58,0.15-1.46,0.21-2.12,0.21c-1.84,0-3.24-0.61-3.24-2.75v-11.26h-3.04V430.46z"/>
	<path class="st16" d="M267.05,439.49v-0.36c0-1.36,0.38-2.74,2.68-4.99c1.92-1.88,2.38-3.07,2.38-4.54c0-1.91-0.98-3.6-3.95-3.6
		c-2.53,0-3.91,1.58-4.03,4.14h-1.75c0.08-2.09,0.97-5.34,5.91-5.34c4.02,0,5.7,2.05,5.7,4.77c0,2.16-1.02,3.51-3.16,5.61
		c-1.56,1.55-2.01,2.81-2.01,4.1v0.21H267.05z M267.01,445.5v-3.24h1.8v3.24H267.01z"/>
</g>
<g>
	<path class="st16" d="M72.5,605.04c-0.62-0.01-1.24-0.01-1.87-0.04c-1.48-0.07-2.02-0.67-1.92-2.23c2.16,1.53,4.23,0.85,6.3-0.13
		c2.97-1.4,6.08-2.32,9.4-2.63c5.43-0.5,10.36,0.82,14.92,3.51c1.02,0.6,2.02,1.25,2.93,1.99c1.95,1.59,3.93,2.3,6.23,0.4
		c0.28,1.01-0.31,1.46-0.93,1.86c-1.35,0.88-2.73,1.72-3.84,2.89c-1.6,1.69-2.56,3.64-2.44,5.9c0.22,4.27-0.93,8.38-1.6,12.54
		c-0.2,1.22-0.34,2.45-0.79,3.62c-0.63,1.66-1.88,2.73-3.72,2.75c-4.79,0.06-9.53,1.03-14.34,0.68c-3.3-0.24-6.49-0.84-9.75-2.26
		c1.61-0.41,2.98-0.18,4.29,0.12c3.46,0.78,6.92,1.46,10.51,1.06c2.47-0.27,4.93-0.63,7.43-0.58c0.44,0.01,0.88,0.01,1.32,0.03
		c1.92,0.1,2.2-0.06,2.89-1.8c2.21-5.61,3.04-11.43,2.88-17.39c-0.11-0.91-0.13-1.81,0.01-2.72c0.64-0.92,1.32-1.81,1.91-2.76
		c0.82-1.3,0.72-2.16-0.52-3.08c-8-5.95-16.09-7.74-25.9-3.47c-0.7,0.31-1.21,0.75-1.4,1.48C73.92,605.5,73.21,605.23,72.5,605.04z"
		/>
	<path class="st16" d="M109.44,572.02c1.89,2.61,2.75,5.51,2.61,8.66c-0.06,1.4,0.02,2.69,0.86,3.95c0.48,0.71,0.54,1.67,0.79,2.49
		c0.38-0.42,0.8-0.84,1.17-1.3c1.04-1.3,0.69-2.75,0.45-4.17c-0.36-2.13-0.4-4.18,1.23-5.94c0.5-0.54,0.22-1.1-0.07-1.63
		c-3.66-6.73-8.08-12.98-13.43-18.64c-0.85-0.9-1.71-1.77-2.8-2.89c1.53,0.1,2.7,0.4,3.49,1.34c5.49,6.48,10.82,13.08,14.44,20.71
		c0.66,1.38,0.43,1.99-0.91,2.73c-1,0.55-1.5,1.35-1.06,2.32c1.51,3.27,0.44,6.19-1.03,9.17c-1.35,2.74-2.03,5.7-2.85,8.62
		c-0.58,2.06-1.19,4.1-1.82,6.14c-0.26,0.82-0.57,1.64-1.54,2.01c-0.24-0.26,0-0.47,0.06-0.67c1.72-4.85,2.79-9.81,2.97-14.93
		c0.15-4.14-0.42-8.22-1.44-12.25c-0.32-1.25-1-2.31-2.24-2.93c-0.71-0.35-0.68-1.01-0.92-1.55c0.31-0.39,0.86-0.08,1.21-0.36
		C108.97,572.67,109.05,572.22,109.44,572.02z"/>
	<path class="st16" d="M62.63,599.83c2.02-1.29,2.36-3.09,2.01-5.25c-0.3-1.88-0.81-3.53-2.58-4.65c-0.41-0.26-0.76-0.66-1.03-1.06
		c-1.47-2.13-3.6-2.36-5.99-1.89c-0.14,0.03-0.28,0.03-0.47,0.05c1.67-1.53,4.95-1.42,6.58,0.18c0.46,0.45,0.79,0.98,1.13,1.51
		c0.89,1.4,2.37,1.65,3.7,0.6c1.38-1.09,1.8-2.55,1.65-4.17c-0.11-1.2-0.41-2.37-0.76-3.53c-0.38-1.27,0.04-2.07,1.08-2.33
		c0.29-0.07,0.66-0.17,0.56,0.3c-0.5,2.53,0.3,5.07-0.08,7.61c-0.18,1.22-0.77,2.15-1.74,2.85c-1.23,0.89-1.82,1.91-1.67,3.44
		c0.16,1.61,0.28,3.22,0.72,4.78c0.3,1.07,0.82,2.05,1.71,2.83c0.4,0.35,0.77,0.73,0.66,1.36c-0.82-0.42-1.44-1.01-2.11-1.53
		c-0.92-0.72-1.92-1.15-3.13-0.66C62.66,600.19,62.51,600.07,62.63,599.83z"/>
	<path class="st16" d="M63.29,603.15c1.02,1.26,1.28,2.75,1.32,4.27c0.05,2.23,0.01,4.46,0.01,6.69c0,1.28,0.06,2.55,0.58,3.74
		c0.51,1.16,0.22,2.14-0.57,3.06c-0.64,0.75-1.38,1.42-1.91,2.25c-1.2,1.89-0.95,3.41,0.79,4.86c0.37,0.31,0.89,0.52,0.9,1.1
		c0.04,0.27,0.29,0.6-0.26,0.66c-0.7-0.49-1.44-0.95-2.1-1.48c-1.82-1.46-2.09-2.96-0.96-4.95c0.97-1.72,0.97-1.77-0.55-3.13
		c-0.95-0.85-1.03-1-1.12-2.07c0.94,0.14,1.47,0.81,2.1,1.35c0.55,0.47,1.08,1,1.91,0.52c0.79-0.46,0.87-1.14,0.6-1.89
		c-0.47-1.33-0.57-2.67-0.47-4.06c0.25-3.51,0.05-7-0.51-10.47C62.98,603.38,62.87,603.14,63.29,603.15z"/>
	<path class="st16" d="M72.79,571.16c-0.12-2.7-0.1-5.22,0.71-7.67c0.83-2.51,2.6-4.1,5.41-4.53c5.06-0.78,9.98-0.48,14.6,1.86
		c0.41,0.21,0.86,0.37,1.21,0.82c-0.66,0.09-1.18-0.17-1.71-0.29c-2.66-0.59-5.26-1.49-7.98-1.81c-3.86-0.45-7.22,0.64-9.89,3.37
		c-1.11,1.14-1.71,2.44-1.53,4.03c0.09,0.78,0.06,1.58,0.04,2.37C73.62,569.96,73.42,570.56,72.79,571.16z"/>
	<path class="st16" d="M55.38,565.8c-0.07,2.06-1.22,3.55-2.89,4.74c-3.25,2.34-5.43,5.36-6.47,9.07c-0.71,2.54-0.85,5.15-0.71,7.96
		c-0.47-0.62-0.47-1.19-0.6-1.7c-0.15-0.57-0.23-1.15-0.29-1.73c-0.43-4.29,0.77-8.1,3.86-11.32c2.3-2.4,4.61-4.79,7.11-7
		L55.38,565.8z"/>
	<path class="st16" d="M109.44,572.02c-0.08,0.42-0.22,0.8-0.65,1.01c-0.58-0.5-1.47-0.38-2.06-0.86c-0.84-1.1-1.5-2.4-3.22-2.49
		c-0.67-0.16-1.37,0.06-2.03-0.13c-0.46,0.04-0.93,0.12-1.57-0.15c1.17-0.14,2.15-0.25,3.45-0.41c-3-2.12-6.07-3.94-7.93-6.94
		c0.83-0.15,1.32-0.06,2.04,0.34c0.67,0.38,1.25,0.86,1.68,1.46c1.53,2.1,3.87,3.18,6.11,4.4
		C106.97,569.18,108.59,570.23,109.44,572.02z"/>
	<path class="st16" d="M72.89,605.01c0.47-0.03,0.93-0.03,1.39-0.15c0.11-0.03,0.22,0.05,0.23,0.15c0.1,1.33,0.53,2.47,1.73,3.38
		c2.05,1.55,2.32,3.82,2.4,6.07c0.1,2.81,0,5.63,0.69,8.4c0.3,1.21,0.77,2.35,1.36,3.64c0.07,0.15-0.11,0.3-0.26,0.22
		c-0.56-0.29-0.95-0.62-1.27-1.03c-1.04-1.35-1.37-2.83-1.24-4.49c0.3-3.86-0.51-7.72-2.21-11.24c-0.8-1.65-1.62-3.3-2.95-4.66
		C72.66,605.19,72.74,605.02,72.89,605.01z"/>
	<path class="st16" d="M65.92,556.68c-1.08,0.76-2.1,1.61-3.27,2.24c-1.28,0.69-2.2,1.63-2.98,2.78c-0.82,1.22-1.81,2.33-2.95,3.3
		c-0.39,0.34-0.75,0.76-1.35,0.79l0.02,0.02c0.26-1.29,1.15-2.26,1.96-3.25c1.08-1.32,2.2-2.62,3.35-3.88
		c1.23-1.34,2.72-2.27,4.71-2.18C65.63,556.46,65.89,556.29,65.92,556.68z"/>
	<path class="st16" d="M51.21,604.02c3.5,4.04,5.52,8.81,7.76,13.47C55.48,613.45,52.88,608.97,51.21,604.02z"/>
	<path class="st16" d="M90.04,567.07c-1.79,0-3.58-0.18-5.38-0.03c-2.74,0.22-4.5,1.1-7.14,3.61c0.1-2.16,2.13-3.99,4.86-4.45
		c2.78-0.47,5.46,0.07,8.13,0.69C90.5,567.28,90.24,567.11,90.04,567.07z"/>
	<path class="st16" d="M62.63,599.83c0.08,0.15,0.16,0.3,0.24,0.45c-0.01,0.68-0.03,1.36-0.04,2.04c-0.05,0-0.1,0-0.15,0
		c-0.75-1.54-2.25-2.07-3.83-2.46c-1.13-0.28-2.29-0.49-3.3-1.07c-0.37-0.21-0.75-0.42-0.95-0.95c2.5,0.28,5.01,0.26,7.03,1.86
		C61.97,599.97,62.28,599.89,62.63,599.83z"/>
	<path class="st16" d="M73.89,551.76c2.2-2.93,6.45-4.29,9.79-3.12C80.02,548.75,77.39,551.24,73.89,551.76z"/>
	<path class="st16" d="M90.67,549.5c3.73-2.18,5.98,0.7,8.8,2.24c-1,0.33-1.8,0.07-2.54-0.22c-0.84-0.32-1.63-0.76-2.44-1.15
		C93.29,549.8,92.06,549.34,90.67,549.5z"/>
	<path class="st16" d="M50.26,602.41c-2.2-2.37-2.79-5.26-3.14-8.22C49.3,596.54,49.86,599.45,50.26,602.41z"/>
	<path class="st16" d="M93.31,626.9c1.14-2.71,2.26-5.37,3.42-8.12c0.07-0.18,0.35-0.13,0.36,0.06c0.04,2.58-1.6,6.7-3.48,8.25
		C93.45,627.21,93.23,627.07,93.31,626.9z"/>
	<path class="st16" d="M65.92,556.68c-0.16-0.06-0.33-0.12-0.5-0.18c0.91-0.07,1.47-0.68,2.09-1.2c1.35-1.13,2.81-2.07,4.56-2.58
		c0.21-0.06,0.4-0.17,0.71,0c-1.37,2.11-3.29,3.4-5.9,3.79C66.56,556.56,66.24,556.62,65.92,556.68z"/>
	<path class="st16" d="M72.74,571.78c0.22,3.17-1.58,5.17-3.79,7.04C68.74,577.53,69.55,576.05,72.74,571.78z"/>
	<path class="st16" d="M102.67,580.46c0.39-1.92-0.69-2.89-2.21-3.6c-1.08-0.5-2.2-0.93-3.21-1.57c-0.61-0.38-1.14-0.83-1.33-1.59
		c2.34,1.22,4.89,2.09,6.81,3.92C103.56,578.4,103.49,579.28,102.67,580.46z"/>
	<path class="st16" d="M100.31,612.57c0.06,0.03,0.1,0.09,0.1,0.16c0,0.87,0,1.74-0.01,2.61c-0.3-0.51-0.19-1.08-0.16-1.61
		c0.04-0.75-0.29-0.94-1.03-0.91c-1.82,0.07-3.65,0.16-5.39-0.55c-0.44-0.18-0.86-0.37-1.33-0.72c-0.15-0.11-0.04-0.34,0.15-0.3
		C95.35,611.75,97.96,611.46,100.31,612.57z"/>
	<path class="st16" d="M88.64,571.55c-3.01-0.5-5.62,0.12-8.25,1.27C81.58,570.41,85.59,569.79,88.64,571.55z"/>
	<path class="st16" d="M87.49,590.17c3.04-0.6,6.05-1.41,9.18-1.5c0.6,0.04,1.26-0.39,1.77,0.23c-2.74,0.44-5.49,0.89-8.23,1.32
		c-0.53,0.08-1.08,0.12-1.62,0.18C88.22,590.4,87.76,590.71,87.49,590.17z"/>
	<path class="st16" d="M106.72,572.17c0.49,0.08,0.99-0.01,1.48,0.15c0.39,0.13,0.63,0.29,0.58,0.7c-0.31,0.88-0.97-0.06-1.39,0.23
		c-0.96-0.14-1.92-0.28-3.05-0.45C105.19,572.33,105.95,572.24,106.72,572.17z"/>
	<path class="st16" d="M53.2,588.3c-0.51,2.21-0.69,4.44-0.63,6.71c-0.41-0.73-0.55-1.53-0.47-2.34c0.15-1.55,0.01-3.15,0.88-4.58
		C53.18,588.04,53.28,588.08,53.2,588.3z"/>
	<path class="st16" d="M101.78,588.67c1.51,0.08,2.92,0.41,4.01,1.53c-1.67-0.58-3.31-1.21-5.11-1.3
		C100.94,588.36,101.4,588.66,101.78,588.67z"/>
	<path class="st16" d="M101.37,588.6c-0.35,0.13-0.33-0.02-0.69,0.28c-0.74,0-1.49,0.01-2.23,0.01c0,0,0,0,0,0
		c-0.54-0.41-1.19-0.05-1.77-0.23C98.38,588.36,99.67,588.49,101.37,588.6z"/>
	<path class="st16" d="M87.55,590.23c0.01,0.01,0.03,0.02,0.04,0.03c0.14,0.1,0.06,0.31-0.12,0.31c-0.45-0.01-0.9-0.09-1.35-0.13
		c0.42-0.08,0.84-0.17,1.26-0.25C87.44,590.18,87.51,590.19,87.55,590.23z"/>
	<path class="st16" d="M101.47,569.54c0.68,0.01,1.37-0.18,2.03,0.13C102.82,569.66,102.14,569.76,101.47,569.54z"/>
	<path class="st16" d="M53.26,597.04c-0.57-0.46-0.6-0.83-0.41-1.26C52.96,596.11,53.07,596.45,53.26,597.04z"/>
	<path class="st16" d="M62.68,602.31c0.05,0,0.1,0,0.15,0c0.15,0.28,0.31,0.56,0.46,0.84c-0.08,0.15-0.16,0.3-0.24,0.44
		C62.81,603.2,62.75,602.76,62.68,602.31z"/>
	<path class="st16" d="M90.04,567.07c0.16-0.06,0.32-0.12,0.48-0.18c0.24,0.06,0.47,0.13,0.99,0.27
		C90.81,567.3,90.43,567.24,90.04,567.07z"/>
	<path class="st16" d="M53.2,588.3l-0.14-0.13c-0.05-0.05-0.07-0.13-0.04-0.19c0.09-0.19,0.23-0.4,0.4-0.27
		C53.69,587.9,53.34,588.12,53.2,588.3z"/>
	<path class="st16" d="M64.16,629.78c0.29-0.15,0.18-0.44,0.26-0.66c0.19,0.24,0.27,0.51,0.1,0.76
		C64.45,629.99,64.26,629.91,64.16,629.78z"/>
</g>
</svg>
